<svg xmlns="http://www.w3.org/2000/svg" viewBox="0 0 1100 610" role="img"><title>Cambio acumulado medio — Mes</title><desc>Curva media acumulada y barras de cambio medio por paso, calculadas con el Analizador sobre datos sintéticos.</desc><rect width="1100" height="610" fill="#0d1424"/><text x="82.00" y="28.00" fill="#4fc3f7" font-family="Segoe UI,Arial,sans-serif" font-size="14" text-anchor="start">CAMBIO ACUMULADO MEDIO — MES</text><text x="82.00" y="50.00" fill="#9aaec7" font-family="Segoe UI,Arial,sans-serif" font-size="11" text-anchor="start">72 periodos completos · H1 · UTC · Serie sintética 2018–2023</text><path d="M82 326.00H1008" stroke="#253a60" opacity=".65"/><text x="69.00" y="330.00" fill="#9aaec7" font-family="Segoe UI,Arial,sans-serif" font-size="10" text-anchor="end">-0.140%</text><path d="M82 265.00H1008" stroke="#253a60" opacity=".65"/><text x="69.00" y="269.00" fill="#9aaec7" font-family="Segoe UI,Arial,sans-serif" font-size="10" text-anchor="end">+0.149%</text><path d="M82 204.00H1008" stroke="#253a60" opacity=".65"/><text x="69.00" y="208.00" fill="#9aaec7" font-family="Segoe UI,Arial,sans-serif" font-size="10" text-anchor="end">+0.437%</text><path d="M82 143.00H1008" stroke="#253a60" opacity=".65"/><text x="69.00" y="147.00" fill="#9aaec7" font-family="Segoe UI,Arial,sans-serif" font-size="10" text-anchor="end">+0.726%</text><path d="M82 82.00H1008" stroke="#253a60" opacity=".65"/><text x="69.00" y="86.00" fill="#9aaec7" font-family="Segoe UI,Arial,sans-serif" font-size="10" text-anchor="end">+1.014%</text><path d="M82 296.42H1008" stroke="#9aaec7" opacity=".5" stroke-dasharray="4 5"/><text x="82.00" y="351.00" fill="#9aaec7" font-family="Segoe UI,Arial,sans-serif" font-size="10" text-anchor="middle">1</text><text x="82.00" y="559.00" fill="#9aaec7" font-family="Segoe UI,Arial,sans-serif" font-size="10" text-anchor="middle">1</text><text x="174.60" y="351.00" fill="#9aaec7" font-family="Segoe UI,Arial,sans-serif" font-size="10" text-anchor="middle">4</text><text x="174.60" y="559.00" fill="#9aaec7" font-family="Segoe UI,Arial,sans-serif" font-size="10" text-anchor="middle">4</text><text x="267.20" y="351.00" fill="#9aaec7" font-family="Segoe UI,Arial,sans-serif" font-size="10" text-anchor="middle">7</text><text x="267.20" y="559.00" fill="#9aaec7" font-family="Segoe UI,Arial,sans-serif" font-size="10" text-anchor="middle">7</text><text x="359.80" y="351.00" fill="#9aaec7" font-family="Segoe UI,Arial,sans-serif" font-size="10" text-anchor="middle">10</text><text x="359.80" y="559.00" fill="#9aaec7" font-family="Segoe UI,Arial,sans-serif" font-size="10" text-anchor="middle">10</text><text x="452.40" y="351.00" fill="#9aaec7" font-family="Segoe UI,Arial,sans-serif" font-size="10" text-anchor="middle">13</text><text x="452.40" y="559.00" fill="#9aaec7" font-family="Segoe UI,Arial,sans-serif" font-size="10" text-anchor="middle">13</text><text x="545.00" y="351.00" fill="#9aaec7" font-family="Segoe UI,Arial,sans-serif" font-size="10" text-anchor="middle">16</text><text x="545.00" y="559.00" fill="#9aaec7" font-family="Segoe UI,Arial,sans-serif" font-size="10" text-anchor="middle">16</text><text x="637.60" y="351.00" fill="#9aaec7" font-family="Segoe UI,Arial,sans-serif" font-size="10" text-anchor="middle">19</text><text x="637.60" y="559.00" fill="#9aaec7" font-family="Segoe UI,Arial,sans-serif" font-size="10" text-anchor="middle">19</text><text x="730.20" y="351.00" fill="#9aaec7" font-family="Segoe UI,Arial,sans-serif" font-size="10" text-anchor="middle">22</text><text x="730.20" y="559.00" fill="#9aaec7" font-family="Segoe UI,Arial,sans-serif" font-size="10" text-anchor="middle">22</text><text x="822.80" y="351.00" fill="#9aaec7" font-family="Segoe UI,Arial,sans-serif" font-size="10" text-anchor="middle">25</text><text x="822.80" y="559.00" fill="#9aaec7" font-family="Segoe UI,Arial,sans-serif" font-size="10" text-anchor="middle">25</text><text x="915.40" y="351.00" fill="#9aaec7" font-family="Segoe UI,Arial,sans-serif" font-size="10" text-anchor="middle">28</text><text x="915.40" y="559.00" fill="#9aaec7" font-family="Segoe UI,Arial,sans-serif" font-size="10" text-anchor="middle">28</text><text x="1008.00" y="351.00" fill="#9aaec7" font-family="Segoe UI,Arial,sans-serif" font-size="10" text-anchor="middle">31</text><text x="1008.00" y="559.00" fill="#9aaec7" font-family="Segoe UI,Arial,sans-serif" font-size="10" text-anchor="middle">31</text><path d="M82.00 289.63L112.87 280.91" stroke="#2ecc71" stroke-width="2.3" fill="none"/><path d="M112.87 280.91L143.73 273.53" stroke="#2ecc71" stroke-width="2.3" fill="none"/><path d="M143.73 273.53L174.60 262.16" stroke="#2ecc71" stroke-width="2.3" fill="none"/><path d="M174.60 262.16L205.47 255.39" stroke="#2ecc71" stroke-width="2.3" fill="none"/><path d="M205.47 255.39L236.33 247.43" stroke="#2ecc71" stroke-width="2.3" fill="none"/><path d="M236.33 247.43L267.20 240.94" stroke="#2ecc71" stroke-width="2.3" fill="none"/><path d="M267.20 240.94L298.07 233.56" stroke="#2ecc71" stroke-width="2.3" fill="none"/><path d="M298.07 233.56L328.93 226.49" stroke="#2ecc71" stroke-width="2.3" fill="none"/><path d="M328.93 226.49L359.80 224.71" stroke="#2ecc71" stroke-width="2.3" fill="none"/><path d="M359.80 224.71L390.67 216.44" stroke="#2ecc71" stroke-width="2.3" fill="none"/><path d="M390.67 216.44L421.53 212.98" stroke="#2ecc71" stroke-width="2.3" fill="none"/><path d="M421.53 212.98L452.40 204.29" stroke="#2ecc71" stroke-width="2.3" fill="none"/><path d="M452.40 204.29L483.27 198.01" stroke="#2ecc71" stroke-width="2.3" fill="none"/><path d="M483.27 198.01L514.13 195.38" stroke="#2ecc71" stroke-width="2.3" fill="none"/><path d="M514.13 195.38L545.00 190.69" stroke="#2ecc71" stroke-width="2.3" fill="none"/><path d="M545.00 190.69L575.87 188.17" stroke="#2ecc71" stroke-width="2.3" fill="none"/><path d="M575.87 188.17L606.73 186.03" stroke="#2ecc71" stroke-width="2.3" fill="none"/><path d="M606.73 186.03L637.60 182.02" stroke="#2ecc71" stroke-width="2.3" fill="none"/><path d="M637.60 182.02L668.47 172.47" stroke="#2ecc71" stroke-width="2.3" fill="none"/><path d="M668.47 172.47L699.33 166.02" stroke="#2ecc71" stroke-width="2.3" fill="none"/><path d="M699.33 166.02L730.20 160.13" stroke="#2ecc71" stroke-width="2.3" fill="none"/><path d="M730.20 160.13L761.07 156.65" stroke="#2ecc71" stroke-width="2.3" fill="none"/><path d="M761.07 156.65L791.93 150.31" stroke="#2ecc71" stroke-width="2.3" fill="none"/><path d="M791.93 150.31L822.80 147.94" stroke="#2ecc71" stroke-width="2.3" fill="none"/><path d="M822.80 147.94L853.67 141.39" stroke="#2ecc71" stroke-width="2.3" fill="none"/><path d="M853.67 141.39L884.53 136.16" stroke="#2ecc71" stroke-width="2.3" fill="none"/><path d="M884.53 136.16L915.40 129.88" stroke="#2ecc71" stroke-width="2.3" fill="none"/><path d="M915.40 129.88L946.27 123.82" stroke="#2ecc71" stroke-width="2.3" fill="none"/><path d="M946.27 123.82L977.13 116.93" stroke="#2ecc71" stroke-width="2.3" fill="none"/><path d="M977.13 116.93L1008.00 111.58" stroke="#2ecc71" stroke-width="2.3" fill="none"/><circle cx="82.00" cy="289.63" r="2.5" fill="#c8d6e5" opacity=".7"/><circle cx="112.87" cy="280.91" r="2.5" fill="#c8d6e5" opacity=".7"/><circle cx="143.73" cy="273.53" r="2.5" fill="#c8d6e5" opacity=".7"/><circle cx="174.60" cy="262.16" r="2.5" fill="#c8d6e5" opacity=".7"/><circle cx="205.47" cy="255.39" r="2.5" fill="#c8d6e5" opacity=".7"/><circle cx="236.33" cy="247.43" r="2.5" fill="#c8d6e5" opacity=".7"/><circle cx="267.20" cy="240.94" r="2.5" fill="#c8d6e5" opacity=".7"/><circle cx="298.07" cy="233.56" r="2.5" fill="#c8d6e5" opacity=".7"/><circle cx="328.93" cy="226.49" r="2.5" fill="#c8d6e5" opacity=".7"/><circle cx="359.80" cy="224.71" r="2.5" fill="#c8d6e5" opacity=".7"/><circle cx="390.67" cy="216.44" r="2.5" fill="#c8d6e5" opacity=".7"/><circle cx="421.53" cy="212.98" r="2.5" fill="#c8d6e5" opacity=".7"/><circle cx="452.40" cy="204.29" r="2.5" fill="#c8d6e5" opacity=".7"/><circle cx="483.27" cy="198.01" r="2.5" fill="#c8d6e5" opacity=".7"/><circle cx="514.13" cy="195.38" r="2.5" fill="#c8d6e5" opacity=".7"/><circle cx="545.00" cy="190.69" r="2.5" fill="#c8d6e5" opacity=".7"/><circle cx="575.87" cy="188.17" r="2.5" fill="#c8d6e5" opacity=".7"/><circle cx="606.73" cy="186.03" r="2.5" fill="#c8d6e5" opacity=".7"/><circle cx="637.60" cy="182.02" r="2.5" fill="#c8d6e5" opacity=".7"/><circle cx="668.47" cy="172.47" r="2.5" fill="#c8d6e5" opacity=".7"/><circle cx="699.33" cy="166.02" r="2.5" fill="#c8d6e5" opacity=".7"/><circle cx="730.20" cy="160.13" r="2.5" fill="#c8d6e5" opacity=".7"/><circle cx="761.07" cy="156.65" r="2.5" fill="#c8d6e5" opacity=".7"/><circle cx="791.93" cy="150.31" r="2.5" fill="#c8d6e5" opacity=".7"/><circle cx="822.80" cy="147.94" r="2.5" fill="#c8d6e5" opacity=".7"/><circle cx="853.67" cy="141.39" r="2.5" fill="#c8d6e5" opacity=".7"/><circle cx="884.53" cy="136.16" r="2.5" fill="#c8d6e5" opacity=".7"/><circle cx="915.40" cy="129.88" r="2.5" fill="#c8d6e5" opacity=".7"/><circle cx="946.27" cy="123.82" r="2.5" fill="#c8d6e5" opacity=".7"/><circle cx="977.13" cy="116.93" r="2.5" fill="#c8d6e5" opacity=".7"/><circle cx="1008.00" cy="111.58" r="2.5" fill="#c8d6e5" opacity=".7"/><path d="M1008 105.58l6 6-6 6-6-6Z" fill="#2ecc71"/><text x="1008.00" y="96.58" fill="#2ecc71" font-family="Segoe UI,Arial,sans-serif" font-size="12" text-anchor="end">Total: +0.874%</text><text x="82.00" y="394.00" fill="#4fc3f7" font-family="Segoe UI,Arial,sans-serif" font-size="11" text-anchor="start">CAMBIO MEDIO POR PASO — MES</text><path d="M82 477.00H1008" stroke="#9aaec7" opacity=".4"/><rect x="71.25" y="449.61" width="21.51" height="27.39" fill="#2ecc71" opacity=".75"/><rect x="102.11" y="441.86" width="21.51" height="35.14" fill="#2ecc71" opacity=".75"/><rect x="132.98" y="447.23" width="21.51" height="29.77" fill="#2ecc71" opacity=".75"/><rect x="163.85" y="431.17" width="21.51" height="45.83" fill="#2ecc71" opacity=".75"/><rect x="194.71" y="449.70" width="21.51" height="27.30" fill="#2ecc71" opacity=".75"/><rect x="225.58" y="444.92" width="21.51" height="32.08" fill="#2ecc71" opacity=".75"/><rect x="256.45" y="450.86" width="21.51" height="26.14" fill="#2ecc71" opacity=".75"/><rect x="287.31" y="447.26" width="21.51" height="29.74" fill="#2ecc71" opacity=".75"/><rect x="318.18" y="448.47" width="21.51" height="28.53" fill="#2ecc71" opacity=".75"/><rect x="349.05" y="469.85" width="21.51" height="7.15" fill="#2ecc71" opacity=".75"/><rect x="379.91" y="443.64" width="21.51" height="33.36" fill="#2ecc71" opacity=".75"/><rect x="410.78" y="463.08" width="21.51" height="13.92" fill="#2ecc71" opacity=".75"/><rect x="441.65" y="441.97" width="21.51" height="35.03" fill="#2ecc71" opacity=".75"/><rect x="472.51" y="451.67" width="21.51" height="25.33" fill="#2ecc71" opacity=".75"/><rect x="503.38" y="466.40" width="21.51" height="10.60" fill="#2ecc71" opacity=".75"/><rect x="534.25" y="458.10" width="21.51" height="18.90" fill="#2ecc71" opacity=".75"/><rect x="565.11" y="466.86" width="21.51" height="10.14" fill="#2ecc71" opacity=".75"/><rect x="595.98" y="468.37" width="21.51" height="8.63" fill="#2ecc71" opacity=".75"/><rect x="626.85" y="460.82" width="21.51" height="16.18" fill="#2ecc71" opacity=".75"/><rect x="657.71" y="438.51" width="21.51" height="38.49" fill="#2ecc71" opacity=".75"/><rect x="688.58" y="450.99" width="21.51" height="26.01" fill="#2ecc71" opacity=".75"/><rect x="719.45" y="453.27" width="21.51" height="23.73" fill="#2ecc71" opacity=".75"/><rect x="750.31" y="462.95" width="21.51" height="14.05" fill="#2ecc71" opacity=".75"/><rect x="781.18" y="451.46" width="21.51" height="25.54" fill="#2ecc71" opacity=".75"/><rect x="812.05" y="467.45" width="21.51" height="9.55" fill="#2ecc71" opacity=".75"/><rect x="842.91" y="450.61" width="21.51" height="26.39" fill="#2ecc71" opacity=".75"/><rect x="873.78" y="455.89" width="21.51" height="21.11" fill="#2ecc71" opacity=".75"/><rect x="904.65" y="451.71" width="21.51" height="25.29" fill="#2ecc71" opacity=".75"/><rect x="935.51" y="452.55" width="21.51" height="24.45" fill="#2ecc71" opacity=".75"/><rect x="966.38" y="449.22" width="21.51" height="27.78" fill="#2ecc71" opacity=".75"/><rect x="997.25" y="455.43" width="21.51" height="21.57" fill="#2ecc71" opacity=".75"/><text x="82.00" y="587.00" fill="#9aaec7" font-family="Segoe UI,Arial,sans-serif" font-size="10" text-anchor="start">Suma de retornos logarítmicos × 100 · Promedio por periodo · Último periodo en curso excluido</text></svg>
