<svg xmlns="http://www.w3.org/2000/svg" viewBox="0 0 1100 600" role="img"><title>Señal, entrada y salida calculadas por el motor de backtesting</title><desc>Resultado del motor de backtesting sobre datos sintéticos.</desc><rect width="1100" height="600" fill="#0d1424"/><text x="50.00" y="23.00" fill="#9aaec7" font-size="11" font-family="Segoe UI,Arial,sans-serif" text-anchor="start">H1 · UTC · DETALLE DE OPERACIÓN</text><text x="480.00" y="23.00" fill="#f1c40f" font-size="10" font-family="Segoe UI,Arial,sans-serif" text-anchor="start">S = SEÑAL AL CIERRE</text><text x="680.00" y="23.00" fill="#2ecc71" font-size="10" font-family="Segoe UI,Arial,sans-serif" text-anchor="start">E = ENTRADA AL OPEN</text><text x="885.00" y="23.00" fill="#4fc3f7" font-size="10" font-family="Segoe UI,Arial,sans-serif" text-anchor="start">X = SALIDA</text><path d="M50 340.00H1025" stroke="#253a60" opacity=".6"/><text x="1038.00" y="344.00" fill="#9aaec7" font-size="10" font-family="Segoe UI,Arial,sans-serif" text-anchor="start">110.24</text><path d="M50 287.40H1025" stroke="#253a60" opacity=".6"/><text x="1038.00" y="291.40" fill="#9aaec7" font-size="10" font-family="Segoe UI,Arial,sans-serif" text-anchor="start">112.69</text><path d="M50 234.80H1025" stroke="#253a60" opacity=".6"/><text x="1038.00" y="238.80" fill="#9aaec7" font-size="10" font-family="Segoe UI,Arial,sans-serif" text-anchor="start">115.14</text><path d="M50 182.20H1025" stroke="#253a60" opacity=".6"/><text x="1038.00" y="186.20" fill="#9aaec7" font-size="10" font-family="Segoe UI,Arial,sans-serif" text-anchor="start">117.59</text><path d="M50 129.60H1025" stroke="#253a60" opacity=".6"/><text x="1038.00" y="133.60" fill="#9aaec7" font-size="10" font-family="Segoe UI,Arial,sans-serif" text-anchor="start">120.04</text><path d="M50 77.00H1025" stroke="#253a60" opacity=".6"/><text x="1038.00" y="81.00" fill="#9aaec7" font-size="10" font-family="Segoe UI,Arial,sans-serif" text-anchor="start">122.49</text><path d="M50.00 77V568" stroke="#253a60" opacity=".4"/><text x="50.00" y="591.00" fill="#9aaec7" font-size="10" font-family="Segoe UI,Arial,sans-serif" text-anchor="middle">V182</text><path d="M180.00 77V568" stroke="#253a60" opacity=".4"/><text x="180.00" y="591.00" fill="#9aaec7" font-size="10" font-family="Segoe UI,Arial,sans-serif" text-anchor="middle">V184</text><path d="M310.00 77V568" stroke="#253a60" opacity=".4"/><text x="310.00" y="591.00" fill="#9aaec7" font-size="10" font-family="Segoe UI,Arial,sans-serif" text-anchor="middle">V186</text><path d="M375.00 77V568" stroke="#253a60" opacity=".4"/><text x="375.00" y="591.00" fill="#9aaec7" font-size="10" font-family="Segoe UI,Arial,sans-serif" text-anchor="middle">V187</text><path d="M570.00 77V568" stroke="#253a60" opacity=".4"/><text x="570.00" y="591.00" fill="#9aaec7" font-size="10" font-family="Segoe UI,Arial,sans-serif" text-anchor="middle">V190</text><path d="M700.00 77V568" stroke="#253a60" opacity=".4"/><text x="700.00" y="591.00" fill="#9aaec7" font-size="10" font-family="Segoe UI,Arial,sans-serif" text-anchor="middle">V192</text><path d="M765.00 77V568" stroke="#253a60" opacity=".4"/><text x="765.00" y="591.00" fill="#9aaec7" font-size="10" font-family="Segoe UI,Arial,sans-serif" text-anchor="middle">V193</text><path d="M830.00 77V568" stroke="#253a60" opacity=".4"/><text x="830.00" y="591.00" fill="#9aaec7" font-size="10" font-family="Segoe UI,Arial,sans-serif" text-anchor="middle">V194</text><path d="M1025.00 77V568" stroke="#253a60" opacity=".4"/><text x="1025.00" y="591.00" fill="#9aaec7" font-size="10" font-family="Segoe UI,Arial,sans-serif" text-anchor="middle">V197</text><polyline points="50.00,268.36 115.00,269.05 180.00,270.23 245.00,268.59 310.00,265.12 375.00,260.87 440.00,255.09 505.00,246.98 570.00,238.01 635.00,229.85 700.00,220.55 765.00,210.64 830.00,202.61 895.00,195.30 960.00,188.62 1025.00,181.34" fill="none" stroke="#4fc3f7" stroke-width="1.7" opacity="0.9" stroke-linejoin="round"/><text x="50.00" y="51.00" fill="#4fc3f7" font-size="10" font-family="Segoe UI,Arial,sans-serif" text-anchor="start">EMA 16</text><polyline points="50.00,263.38 115.00,264.19 180.00,265.29 245.00,264.63 310.00,262.73 375.00,260.23 440.00,256.64 505.00,251.42 570.00,245.45 635.00,239.75 700.00,233.17 765.00,225.99 830.00,219.80 895.00,213.92 960.00,208.34 1025.00,202.29" fill="none" stroke="#f1c40f" stroke-width="1.7" opacity="0.9" stroke-linejoin="round"/><text x="310.00" y="51.00" fill="#f1c40f" font-size="10" font-family="Segoe UI,Arial,sans-serif" text-anchor="start">EMA 26</text><path d="M50.00 262.74V307.78" stroke="#2ecc71" stroke-width="1" opacity=".75"/><rect x="46.00" y="280.05" width="8.00" height="11.99" fill="#2ecc71" opacity=".85"/><path d="M115.00 266.56V295.79" stroke="#2ecc71" stroke-width="1" opacity=".75"/><rect x="111.00" y="274.26" width="8.00" height="4.86" fill="#2ecc71" opacity=".85"/><path d="M180.00 261.41V294.98" stroke="#e74c3c" stroke-width="1" opacity=".75"/><rect x="176.00" y="273.87" width="8.00" height="5.18" fill="#e74c3c" opacity=".85"/><path d="M245.00 249.64V292.43" stroke="#2ecc71" stroke-width="1" opacity=".75"/><rect x="241.00" y="256.30" width="8.00" height="18.33" fill="#2ecc71" opacity=".85"/><path d="M310.00 230.47V270.71" stroke="#2ecc71" stroke-width="1" opacity=".75"/><rect x="306.00" y="239.05" width="8.00" height="17.96" fill="#2ecc71" opacity=".85"/><path d="M375.00 211.06V254.90" stroke="#2ecc71" stroke-width="1" opacity=".75"/><rect x="371.00" y="228.99" width="8.00" height="9.89" fill="#2ecc71" opacity=".85"/><path d="M440.00 196.64V247.39" stroke="#2ecc71" stroke-width="1" opacity=".75"/><rect x="436.00" y="211.77" width="8.00" height="21.43" fill="#2ecc71" opacity=".85"/><path d="M505.00 174.82V224.57" stroke="#2ecc71" stroke-width="1" opacity=".75"/><rect x="501.00" y="186.18" width="8.00" height="23.29" fill="#2ecc71" opacity=".85"/><path d="M570.00 157.94V190.79" stroke="#2ecc71" stroke-width="1" opacity=".75"/><rect x="566.00" y="170.73" width="8.00" height="11.30" fill="#2ecc71" opacity=".85"/><path d="M635.00 158.69V191.84" stroke="#2ecc71" stroke-width="1" opacity=".75"/><rect x="631.00" y="168.59" width="8.00" height="5.71" fill="#2ecc71" opacity=".85"/><path d="M700.00 142.49V186.56" stroke="#2ecc71" stroke-width="1" opacity=".75"/><rect x="696.00" y="150.85" width="8.00" height="22.32" fill="#2ecc71" opacity=".85"/><path d="M765.00 120.12V159.81" stroke="#2ecc71" stroke-width="1" opacity=".75"/><rect x="761.00" y="136.30" width="8.00" height="10.27" fill="#2ecc71" opacity=".85"/><path d="M830.00 120.50V151.91" stroke="#e74c3c" stroke-width="1" opacity=".75"/><rect x="826.00" y="136.57" width="8.00" height="5.82" fill="#e74c3c" opacity=".85"/><path d="M895.00 131.53V151.44" stroke="#2ecc71" stroke-width="1" opacity=".75"/><rect x="891.00" y="140.47" width="8.00" height="1.02" fill="#2ecc71" opacity=".85"/><path d="M960.00 124.80V158.94" stroke="#2ecc71" stroke-width="1" opacity=".75"/><rect x="956.00" y="138.52" width="8.00" height="5.03" fill="#2ecc71" opacity=".85"/><path d="M1025.00 109.22V153.81" stroke="#2ecc71" stroke-width="1" opacity=".75"/><rect x="1021.00" y="126.73" width="8.00" height="16.84" fill="#2ecc71" opacity=".85"/><polyline points="375.00,238.39 765.00,131.68" fill="none" stroke="#2ecc71" stroke-width="1.2" opacity="0.55" stroke-linejoin="round" stroke-dasharray="3 3"/><polyline points="375.00,291.74 765.00,291.74" fill="none" stroke="#e74c3c" stroke-width="1.2" opacity="0.7" stroke-linejoin="round" stroke-dasharray="5 4"/><text x="773.00" y="287.74" fill="#e74c3c" font-size="9" font-family="Segoe UI,Arial,sans-serif" text-anchor="start">STOP INICIAL</text><polyline points="375.00,131.68 765.00,131.68" fill="none" stroke="#f1c40f" stroke-width="1.2" opacity="0.7" stroke-linejoin="round" stroke-dasharray="5 4"/><text x="773.00" y="127.68" fill="#f1c40f" font-size="9" font-family="Segoe UI,Arial,sans-serif" text-anchor="start">TP 2R</text><g><title>Señal #3: cierre de V186, 114.94211</title><path d="M310.00 235.05l4 4-4 4-4-4Z" fill="#f1c40f"/><text x="310.00" y="228.05" fill="#f1c40f" font-size="9" font-family="Segoe UI,Arial,sans-serif" text-anchor="middle">S</text></g><g><title>Entrada #3: apertura de V187, open 114.94986, fill 114.97285</title><path d="M375.00 238.39l-5 8h10Z" fill="#2ecc71"/><text x="375.00" y="258.39" fill="#2ecc71" font-size="9" font-family="Segoe UI,Arial,sans-serif" text-anchor="middle">E</text></g><g><title>Salida #3: V193, Take Profit (intrabar), fill 119.94133</title><path d="M761.00 127.68l8 8m-8 0 8-8" stroke="#4fc3f7" stroke-width="1.7"/></g><path d="M50 370H1025" stroke="#253a60"/><polyline points="50.00,459.81 115.00,459.58 180.00,459.73 245.00,457.80 310.00,454.65 375.00,451.17 440.00,446.81 505.00,441.07 570.00,435.11 635.00,430.18 700.00,424.79 765.00,419.34 830.00,415.69 895.00,412.83 960.00,410.65 1025.00,408.19" fill="none" stroke="#b38af6" stroke-width="1.6" opacity="1" stroke-linejoin="round"/><text x="50.00" y="390.00" fill="#b38af6" font-size="10" font-family="Segoe UI,Arial,sans-serif" text-anchor="start">MACD 16 / 26 / 9</text><polyline points="50.00,452.02 115.00,453.54 180.00,454.78 245.00,455.38 310.00,455.23 375.00,454.42 440.00,452.90 505.00,450.53 570.00,447.45 635.00,443.99 700.00,440.15 765.00,435.99 830.00,431.93 895.00,428.11 960.00,424.62 1025.00,421.33" fill="none" stroke="#f1c40f" stroke-width="1.6" opacity="1" stroke-linejoin="round"/><text x="290.00" y="390.00" fill="#f1c40f" font-size="10" font-family="Segoe UI,Arial,sans-serif" text-anchor="start">Señal MACD</text><polyline points="50.00,554.60 1025.00,554.60" fill="none" stroke="#253a60" stroke-width="1" opacity="1" stroke-linejoin="round" stroke-dasharray="4 5"/><text x="1038.00" y="558.60" fill="#9aaec7" font-size="9" font-family="Segoe UI,Arial,sans-serif" text-anchor="start">20</text><polyline points="50.00,543.44 115.00,543.32 180.00,543.57 245.00,544.54 310.00,546.04 375.00,546.71 440.00,546.90 505.00,546.54 570.00,545.88 635.00,545.32 700.00,544.50 765.00,543.41 830.00,542.39 895.00,541.45 960.00,541.00 1025.00,540.31" fill="none" stroke="#b38af6" stroke-width="1.6" opacity="1" stroke-linejoin="round"/><text x="50.00" y="489.00" fill="#b38af6" font-size="10" font-family="Segoe UI,Arial,sans-serif" text-anchor="start">ADX 14</text></svg>
