<svg xmlns="http://www.w3.org/2000/svg" viewBox="0 0 1100 600" role="img"><title>Señal, entrada y salida calculadas por el motor de backtesting</title><desc>Resultado del motor de backtesting sobre datos sintéticos.</desc><rect width="1100" height="600" fill="#0d1424"/><text x="50.00" y="23.00" fill="#9aaec7" font-size="11" font-family="Segoe UI,Arial,sans-serif" text-anchor="start">H1 · UTC · DETALLE DE OPERACIÓN</text><text x="480.00" y="23.00" fill="#f1c40f" font-size="10" font-family="Segoe UI,Arial,sans-serif" text-anchor="start">S = SEÑAL AL CIERRE</text><text x="680.00" y="23.00" fill="#2ecc71" font-size="10" font-family="Segoe UI,Arial,sans-serif" text-anchor="start">E = ENTRADA AL OPEN</text><text x="885.00" y="23.00" fill="#4fc3f7" font-size="10" font-family="Segoe UI,Arial,sans-serif" text-anchor="start">X = SALIDA</text><path d="M50 340.00H1025" stroke="#253a60" opacity=".6"/><text x="1038.00" y="344.00" fill="#9aaec7" font-size="10" font-family="Segoe UI,Arial,sans-serif" text-anchor="start">110.70</text><path d="M50 287.40H1025" stroke="#253a60" opacity=".6"/><text x="1038.00" y="291.40" fill="#9aaec7" font-size="10" font-family="Segoe UI,Arial,sans-serif" text-anchor="start">112.83</text><path d="M50 234.80H1025" stroke="#253a60" opacity=".6"/><text x="1038.00" y="238.80" fill="#9aaec7" font-size="10" font-family="Segoe UI,Arial,sans-serif" text-anchor="start">114.96</text><path d="M50 182.20H1025" stroke="#253a60" opacity=".6"/><text x="1038.00" y="186.20" fill="#9aaec7" font-size="10" font-family="Segoe UI,Arial,sans-serif" text-anchor="start">117.09</text><path d="M50 129.60H1025" stroke="#253a60" opacity=".6"/><text x="1038.00" y="133.60" fill="#9aaec7" font-size="10" font-family="Segoe UI,Arial,sans-serif" text-anchor="start">119.22</text><path d="M50 77.00H1025" stroke="#253a60" opacity=".6"/><text x="1038.00" y="81.00" fill="#9aaec7" font-size="10" font-family="Segoe UI,Arial,sans-serif" text-anchor="start">121.35</text><path d="M50.00 77V568" stroke="#253a60" opacity=".4"/><text x="50.00" y="591.00" fill="#9aaec7" font-size="10" font-family="Segoe UI,Arial,sans-serif" text-anchor="middle">V225</text><path d="M180.00 77V568" stroke="#253a60" opacity=".4"/><text x="180.00" y="591.00" fill="#9aaec7" font-size="10" font-family="Segoe UI,Arial,sans-serif" text-anchor="middle">V227</text><path d="M310.00 77V568" stroke="#253a60" opacity=".4"/><text x="310.00" y="591.00" fill="#9aaec7" font-size="10" font-family="Segoe UI,Arial,sans-serif" text-anchor="middle">V229</text><path d="M375.00 77V568" stroke="#253a60" opacity=".4"/><text x="375.00" y="591.00" fill="#9aaec7" font-size="10" font-family="Segoe UI,Arial,sans-serif" text-anchor="middle">V230</text><path d="M570.00 77V568" stroke="#253a60" opacity=".4"/><text x="570.00" y="591.00" fill="#9aaec7" font-size="10" font-family="Segoe UI,Arial,sans-serif" text-anchor="middle">V233</text><path d="M700.00 77V568" stroke="#253a60" opacity=".4"/><text x="700.00" y="591.00" fill="#9aaec7" font-size="10" font-family="Segoe UI,Arial,sans-serif" text-anchor="middle">V235</text><path d="M830.00 77V568" stroke="#253a60" opacity=".4"/><text x="830.00" y="591.00" fill="#9aaec7" font-size="10" font-family="Segoe UI,Arial,sans-serif" text-anchor="middle">V237</text><path d="M895.00 77V568" stroke="#253a60" opacity=".4"/><text x="895.00" y="591.00" fill="#9aaec7" font-size="10" font-family="Segoe UI,Arial,sans-serif" text-anchor="middle">V238</text><path d="M1025.00 77V568" stroke="#253a60" opacity=".4"/><text x="1025.00" y="591.00" fill="#9aaec7" font-size="10" font-family="Segoe UI,Arial,sans-serif" text-anchor="middle">V240</text><polyline points="50.00,258.19 115.00,261.47 180.00,264.69 245.00,265.97 310.00,267.08 375.00,266.95 440.00,268.46 505.00,267.84 570.00,267.11 635.00,264.16 700.00,259.58 765.00,254.84 830.00,245.47 895.00,235.35 960.00,222.83 1025.00,208.49" fill="none" stroke="#4fc3f7" stroke-width="1.7" opacity="0.9" stroke-linejoin="round"/><text x="50.00" y="51.00" fill="#4fc3f7" font-size="10" font-family="Segoe UI,Arial,sans-serif" text-anchor="start">EMA 12</text><polyline points="50.00,224.51 115.00,228.59 180.00,232.57 245.00,235.57 310.00,238.36 375.00,240.42 440.00,243.11 505.00,244.69 570.00,246.06 635.00,246.19 700.00,245.32 765.00,244.10 830.00,240.38 895.00,235.88 960.00,229.82 1025.00,222.39" fill="none" stroke="#f1c40f" stroke-width="1.7" opacity="0.9" stroke-linejoin="round"/><text x="310.00" y="51.00" fill="#f1c40f" font-size="10" font-family="Segoe UI,Arial,sans-serif" text-anchor="start">EMA 26</text><path d="M50.00 262.15V279.91" stroke="#e74c3c" stroke-width="1" opacity=".75"/><rect x="46.00" y="270.87" width="8.00" height="1.50" fill="#e74c3c" opacity=".85"/><path d="M115.00 261.19V295.40" stroke="#e74c3c" stroke-width="1" opacity=".75"/><rect x="111.00" y="275.57" width="8.00" height="3.96" fill="#e74c3c" opacity=".85"/><path d="M180.00 259.92V289.82" stroke="#e74c3c" stroke-width="1" opacity=".75"/><rect x="176.00" y="276.59" width="8.00" height="5.77" fill="#e74c3c" opacity=".85"/><path d="M245.00 256.02V301.34" stroke="#2ecc71" stroke-width="1" opacity=".75"/><rect x="241.00" y="272.99" width="8.00" height="10.46" fill="#2ecc71" opacity=".85"/><path d="M310.00 259.52V284.18" stroke="#2ecc71" stroke-width="1" opacity=".75"/><rect x="306.00" y="273.24" width="8.00" height="2.71" fill="#2ecc71" opacity=".85"/><path d="M375.00 246.30V283.48" stroke="#2ecc71" stroke-width="1" opacity=".75"/><rect x="371.00" y="266.19" width="8.00" height="6.44" fill="#2ecc71" opacity=".85"/><path d="M440.00 251.08V288.03" stroke="#e74c3c" stroke-width="1" opacity=".75"/><rect x="436.00" y="269.17" width="8.00" height="7.59" fill="#e74c3c" opacity=".85"/><path d="M505.00 244.08V300.87" stroke="#2ecc71" stroke-width="1" opacity=".75"/><rect x="501.00" y="264.44" width="8.00" height="16.57" fill="#2ecc71" opacity=".85"/><path d="M570.00 248.10V272.26" stroke="#e74c3c" stroke-width="1" opacity=".75"/><rect x="566.00" y="261.31" width="8.00" height="1.82" fill="#e74c3c" opacity=".85"/><path d="M635.00 234.16V279.58" stroke="#2ecc71" stroke-width="1" opacity=".75"/><rect x="631.00" y="247.88" width="8.00" height="15.86" fill="#2ecc71" opacity=".85"/><path d="M700.00 223.41V267.01" stroke="#2ecc71" stroke-width="1" opacity=".75"/><rect x="696.00" y="234.40" width="8.00" height="14.27" fill="#2ecc71" opacity=".85"/><path d="M765.00 216.59V246.89" stroke="#2ecc71" stroke-width="1" opacity=".75"/><rect x="761.00" y="228.81" width="8.00" height="1.00" fill="#2ecc71" opacity=".85"/><path d="M830.00 185.45V241.57" stroke="#2ecc71" stroke-width="1" opacity=".75"/><rect x="826.00" y="193.90" width="8.00" height="39.12" fill="#2ecc71" opacity=".85"/><path d="M895.00 159.01V209.85" stroke="#2ecc71" stroke-width="1" opacity=".75"/><rect x="891.00" y="179.69" width="8.00" height="15.38" fill="#2ecc71" opacity=".85"/><path d="M960.00 144.99V196.27" stroke="#2ecc71" stroke-width="1" opacity=".75"/><rect x="956.00" y="154.00" width="8.00" height="22.10" fill="#2ecc71" opacity=".85"/><path d="M1025.00 114.06V165.29" stroke="#2ecc71" stroke-width="1" opacity=".75"/><rect x="1021.00" y="129.57" width="8.00" height="20.28" fill="#2ecc71" opacity=".85"/><polyline points="375.00,272.07 895.00,160.91" fill="none" stroke="#2ecc71" stroke-width="1.2" opacity="0.55" stroke-linejoin="round" stroke-dasharray="3 3"/><polyline points="375.00,327.65 895.00,327.65" fill="none" stroke="#e74c3c" stroke-width="1.2" opacity="0.7" stroke-linejoin="round" stroke-dasharray="5 4"/><text x="903.00" y="323.65" fill="#e74c3c" font-size="9" font-family="Segoe UI,Arial,sans-serif" text-anchor="start">STOP INICIAL</text><polyline points="375.00,160.91 895.00,160.91" fill="none" stroke="#f1c40f" stroke-width="1.2" opacity="0.7" stroke-linejoin="round" stroke-dasharray="5 4"/><text x="903.00" y="156.91" fill="#f1c40f" font-size="9" font-family="Segoe UI,Arial,sans-serif" text-anchor="start">TP 2R</text><g><title>Señal #4: cierre de V229, 113.40516</title><path d="M310.00 269.24l4 4-4 4-4-4Z" fill="#f1c40f"/><text x="310.00" y="262.24" fill="#f1c40f" font-size="9" font-family="Segoe UI,Arial,sans-serif" text-anchor="middle">S</text></g><g><title>Entrada #4: apertura de V230, open 113.43000, fill 113.45268</title><path d="M375.00 272.07l-5 8h10Z" fill="#2ecc71"/><text x="375.00" y="292.07" fill="#2ecc71" font-size="9" font-family="Segoe UI,Arial,sans-serif" text-anchor="middle">E</text></g><g><title>Salida #4: V238, Take Profit (intrabar), fill 117.95150</title><path d="M891.00 156.91l8 8m-8 0 8-8" stroke="#4fc3f7" stroke-width="1.7"/></g><path d="M50 370H1025" stroke="#253a60"/><polyline points="50.00,459.81 115.00,458.95 180.00,458.11 245.00,456.25 310.00,454.44 375.00,452.05 440.00,450.77 505.00,448.39 570.00,446.12 635.00,442.76 700.00,438.74 765.00,434.94 830.00,428.80 895.00,422.70 960.00,415.70 1025.00,408.19" fill="none" stroke="#b38af6" stroke-width="1.6" opacity="1" stroke-linejoin="round"/><text x="50.00" y="390.00" fill="#b38af6" font-size="10" font-family="Segoe UI,Arial,sans-serif" text-anchor="start">MACD 12 / 26 / 9</text><polyline points="50.00,453.07 115.00,454.25 180.00,455.02 245.00,455.27 310.00,455.10 375.00,454.49 440.00,453.75 505.00,452.67 570.00,451.36 635.00,449.64 700.00,447.46 765.00,444.96 830.00,441.73 895.00,437.92 960.00,433.48 1025.00,428.42" fill="none" stroke="#f1c40f" stroke-width="1.6" opacity="1" stroke-linejoin="round"/><text x="290.00" y="390.00" fill="#f1c40f" font-size="10" font-family="Segoe UI,Arial,sans-serif" text-anchor="start">Señal MACD</text><polyline points="50.00,554.60 1025.00,554.60" fill="none" stroke="#253a60" stroke-width="1" opacity="1" stroke-linejoin="round" stroke-dasharray="4 5"/><text x="1038.00" y="558.60" fill="#9aaec7" font-size="9" font-family="Segoe UI,Arial,sans-serif" text-anchor="start">20</text><polyline points="50.00,538.00 115.00,538.00 180.00,538.06 245.00,537.89 310.00,537.73 375.00,538.29 440.00,538.69 505.00,538.76 570.00,538.84 635.00,539.64 700.00,540.88 765.00,542.33 830.00,543.56 895.00,544.03 960.00,544.17 1025.00,543.77" fill="none" stroke="#b38af6" stroke-width="1.6" opacity="1" stroke-linejoin="round"/><text x="50.00" y="489.00" fill="#b38af6" font-size="10" font-family="Segoe UI,Arial,sans-serif" text-anchor="start">ADX 14</text></svg>
