<svg xmlns="http://www.w3.org/2000/svg" viewBox="0 0 1100 600" role="img"><title>Señal, entrada y salida calculadas por el motor de backtesting</title><desc>Resultado del motor de backtesting sobre datos sintéticos.</desc><rect width="1100" height="600" fill="#0d1424"/><text x="50.00" y="23.00" fill="#9aaec7" font-size="11" font-family="Segoe UI,Arial,sans-serif" text-anchor="start">H1 · UTC · DETALLE DE OPERACIÓN</text><text x="480.00" y="23.00" fill="#f1c40f" font-size="10" font-family="Segoe UI,Arial,sans-serif" text-anchor="start">S = SEÑAL AL CIERRE</text><text x="680.00" y="23.00" fill="#2ecc71" font-size="10" font-family="Segoe UI,Arial,sans-serif" text-anchor="start">E = ENTRADA AL OPEN</text><text x="885.00" y="23.00" fill="#4fc3f7" font-size="10" font-family="Segoe UI,Arial,sans-serif" text-anchor="start">X = SALIDA</text><path d="M50 340.00H1025" stroke="#253a60" opacity=".6"/><text x="1038.00" y="344.00" fill="#9aaec7" font-size="10" font-family="Segoe UI,Arial,sans-serif" text-anchor="start">110.24</text><path d="M50 287.40H1025" stroke="#253a60" opacity=".6"/><text x="1038.00" y="291.40" fill="#9aaec7" font-size="10" font-family="Segoe UI,Arial,sans-serif" text-anchor="start">112.46</text><path d="M50 234.80H1025" stroke="#253a60" opacity=".6"/><text x="1038.00" y="238.80" fill="#9aaec7" font-size="10" font-family="Segoe UI,Arial,sans-serif" text-anchor="start">114.68</text><path d="M50 182.20H1025" stroke="#253a60" opacity=".6"/><text x="1038.00" y="186.20" fill="#9aaec7" font-size="10" font-family="Segoe UI,Arial,sans-serif" text-anchor="start">116.91</text><path d="M50 129.60H1025" stroke="#253a60" opacity=".6"/><text x="1038.00" y="133.60" fill="#9aaec7" font-size="10" font-family="Segoe UI,Arial,sans-serif" text-anchor="start">119.13</text><path d="M50 77.00H1025" stroke="#253a60" opacity=".6"/><text x="1038.00" y="81.00" fill="#9aaec7" font-size="10" font-family="Segoe UI,Arial,sans-serif" text-anchor="start">121.35</text><path d="M50.00 77V568" stroke="#253a60" opacity=".4"/><text x="50.00" y="591.00" fill="#9aaec7" font-size="10" font-family="Segoe UI,Arial,sans-serif" text-anchor="middle">V223</text><path d="M222.06 77V568" stroke="#253a60" opacity=".4"/><text x="222.06" y="591.00" fill="#9aaec7" font-size="10" font-family="Segoe UI,Arial,sans-serif" text-anchor="middle">V226</text><path d="M279.41 77V568" stroke="#253a60" opacity=".4"/><text x="279.41" y="591.00" fill="#9aaec7" font-size="10" font-family="Segoe UI,Arial,sans-serif" text-anchor="middle">V227</text><path d="M336.76 77V568" stroke="#253a60" opacity=".4"/><text x="336.76" y="591.00" fill="#9aaec7" font-size="10" font-family="Segoe UI,Arial,sans-serif" text-anchor="middle">V228</text><path d="M394.12 77V568" stroke="#253a60" opacity=".4"/><text x="394.12" y="591.00" fill="#9aaec7" font-size="10" font-family="Segoe UI,Arial,sans-serif" text-anchor="middle">V229</text><path d="M508.82 77V568" stroke="#253a60" opacity=".4"/><text x="508.82" y="591.00" fill="#9aaec7" font-size="10" font-family="Segoe UI,Arial,sans-serif" text-anchor="middle">V231</text><path d="M680.88 77V568" stroke="#253a60" opacity=".4"/><text x="680.88" y="591.00" fill="#9aaec7" font-size="10" font-family="Segoe UI,Arial,sans-serif" text-anchor="middle">V234</text><path d="M852.94 77V568" stroke="#253a60" opacity=".4"/><text x="852.94" y="591.00" fill="#9aaec7" font-size="10" font-family="Segoe UI,Arial,sans-serif" text-anchor="middle">V237</text><path d="M910.29 77V568" stroke="#253a60" opacity=".4"/><text x="910.29" y="591.00" fill="#9aaec7" font-size="10" font-family="Segoe UI,Arial,sans-serif" text-anchor="middle">V238</text><path d="M1025.00 77V568" stroke="#253a60" opacity=".4"/><text x="1025.00" y="591.00" fill="#9aaec7" font-size="10" font-family="Segoe UI,Arial,sans-serif" text-anchor="middle">V240</text><polyline points="50.00,261.58 107.35,262.85 164.71,263.16 222.06,264.93 279.41,266.90 336.76,266.44 394.12,266.14 451.47,264.40 508.82,265.30 566.18,263.38 623.53,261.60 680.88,256.97 738.24,250.50 795.59,244.28 852.94,232.00 910.29,219.43 967.65,204.18 1025.00,187.11" fill="none" stroke="#4fc3f7" stroke-width="1.7" opacity="0.9" stroke-linejoin="round"/><text x="50.00" y="51.00" fill="#4fc3f7" font-size="10" font-family="Segoe UI,Arial,sans-serif" text-anchor="start">EMA 8</text><polyline points="50.00,210.50 107.35,214.71 164.71,218.38 222.06,222.29 279.41,226.10 336.76,228.97 394.12,231.65 451.47,233.62 508.82,236.20 566.18,237.72 623.53,239.03 680.88,239.16 738.24,238.32 795.59,237.15 852.94,233.58 910.29,229.27 967.65,223.46 1025.00,216.34" fill="none" stroke="#f1c40f" stroke-width="1.7" opacity="0.9" stroke-linejoin="round"/><text x="310.00" y="51.00" fill="#f1c40f" font-size="10" font-family="Segoe UI,Arial,sans-serif" text-anchor="start">EMA 26</text><path d="M50.00 263.16V290.24" stroke="#e74c3c" stroke-width="1" opacity=".75"/><rect x="46.00" y="272.67" width="8.00" height="5.74" fill="#e74c3c" opacity=".85"/><path d="M107.35 250.54V293.08" stroke="#2ecc71" stroke-width="1" opacity=".75"/><rect x="103.35" y="267.28" width="8.00" height="6.90" fill="#2ecc71" opacity=".85"/><path d="M164.71 254.45V271.47" stroke="#e74c3c" stroke-width="1" opacity=".75"/><rect x="160.71" y="262.80" width="8.00" height="1.44" fill="#e74c3c" opacity=".85"/><path d="M222.06 253.53V286.32" stroke="#e74c3c" stroke-width="1" opacity=".75"/><rect x="218.06" y="267.31" width="8.00" height="3.80" fill="#e74c3c" opacity=".85"/><path d="M279.41 252.31V280.97" stroke="#e74c3c" stroke-width="1" opacity=".75"/><rect x="275.41" y="268.29" width="8.00" height="5.53" fill="#e74c3c" opacity=".85"/><path d="M336.76 248.57V292.01" stroke="#2ecc71" stroke-width="1" opacity=".75"/><rect x="332.76" y="264.84" width="8.00" height="10.03" fill="#2ecc71" opacity=".85"/><path d="M394.12 251.93V275.56" stroke="#2ecc71" stroke-width="1" opacity=".75"/><rect x="390.12" y="265.08" width="8.00" height="2.59" fill="#2ecc71" opacity=".85"/><path d="M451.47 239.26V274.89" stroke="#2ecc71" stroke-width="1" opacity=".75"/><rect x="447.47" y="258.32" width="8.00" height="6.17" fill="#2ecc71" opacity=".85"/><path d="M508.82 243.84V279.25" stroke="#e74c3c" stroke-width="1" opacity=".75"/><rect x="504.82" y="261.18" width="8.00" height="7.27" fill="#e74c3c" opacity=".85"/><path d="M566.18 237.13V291.56" stroke="#2ecc71" stroke-width="1" opacity=".75"/><rect x="562.18" y="256.64" width="8.00" height="15.88" fill="#2ecc71" opacity=".85"/><path d="M623.53 240.99V264.14" stroke="#e74c3c" stroke-width="1" opacity=".75"/><rect x="619.53" y="253.64" width="8.00" height="1.75" fill="#e74c3c" opacity=".85"/><path d="M680.88 227.62V271.16" stroke="#2ecc71" stroke-width="1" opacity=".75"/><rect x="676.88" y="240.78" width="8.00" height="15.20" fill="#2ecc71" opacity=".85"/><path d="M738.24 217.32V259.11" stroke="#2ecc71" stroke-width="1" opacity=".75"/><rect x="734.24" y="227.85" width="8.00" height="13.67" fill="#2ecc71" opacity=".85"/><path d="M795.59 210.78V239.83" stroke="#2ecc71" stroke-width="1" opacity=".75"/><rect x="791.59" y="222.49" width="8.00" height="1.00" fill="#2ecc71" opacity=".85"/><path d="M852.94 180.94V234.73" stroke="#2ecc71" stroke-width="1" opacity=".75"/><rect x="848.94" y="189.03" width="8.00" height="37.49" fill="#2ecc71" opacity=".85"/><path d="M910.29 155.60V204.33" stroke="#2ecc71" stroke-width="1" opacity=".75"/><rect x="906.29" y="175.42" width="8.00" height="14.74" fill="#2ecc71" opacity=".85"/><path d="M967.65 142.17V191.30" stroke="#2ecc71" stroke-width="1" opacity=".75"/><rect x="963.65" y="150.80" width="8.00" height="21.18" fill="#2ecc71" opacity=".85"/><path d="M1025.00 112.52V161.62" stroke="#2ecc71" stroke-width="1" opacity=".75"/><rect x="1021.00" y="127.39" width="8.00" height="19.43" fill="#2ecc71" opacity=".85"/><polyline points="336.76,274.33 910.29,166.68" fill="none" stroke="#2ecc71" stroke-width="1.2" opacity="0.55" stroke-linejoin="round" stroke-dasharray="3 3"/><polyline points="336.76,328.16 910.29,328.16" fill="none" stroke="#e74c3c" stroke-width="1.2" opacity="0.7" stroke-linejoin="round" stroke-dasharray="5 4"/><text x="918.29" y="324.16" fill="#e74c3c" font-size="9" font-family="Segoe UI,Arial,sans-serif" text-anchor="start">STOP INICIAL</text><polyline points="336.76,166.68 910.29,166.68" fill="none" stroke="#f1c40f" stroke-width="1.2" opacity="0.7" stroke-linejoin="round" stroke-dasharray="5 4"/><text x="918.29" y="162.68" fill="#f1c40f" font-size="9" font-family="Segoe UI,Arial,sans-serif" text-anchor="start">TP 2R</text><g><title>Señal #4: cierre de V227, 113.03607</title><path d="M279.41 269.82l4 4-4 4-4-4Z" fill="#f1c40f"/><text x="279.41" y="262.82" fill="#f1c40f" font-size="9" font-family="Segoe UI,Arial,sans-serif" text-anchor="middle">S</text></g><g><title>Entrada #4: apertura de V228, open 112.99188, fill 113.01448</title><path d="M336.76 274.33l-5 8h10Z" fill="#2ecc71"/><text x="336.76" y="294.33" fill="#2ecc71" font-size="9" font-family="Segoe UI,Arial,sans-serif" text-anchor="middle">E</text></g><g><title>Salida #4: V238, Take Profit (intrabar), fill 117.56069</title><path d="M906.29 162.68l8 8m-8 0 8-8" stroke="#4fc3f7" stroke-width="1.7"/></g><path d="M50 370H1025" stroke="#253a60"/><polyline points="50.00,459.81 107.35,457.92 164.71,455.76 222.06,454.38 279.41,453.20 336.76,451.06 394.12,449.15 451.47,446.76 508.82,445.68 566.18,443.47 623.53,441.49 680.88,438.43 738.24,434.81 795.59,431.56 852.94,425.96 910.29,420.65 967.65,414.59 1025.00,408.19" fill="none" stroke="#b38af6" stroke-width="1.6" opacity="1" stroke-linejoin="round"/><text x="50.00" y="390.00" fill="#b38af6" font-size="10" font-family="Segoe UI,Arial,sans-serif" text-anchor="start">MACD 8 / 26 / 9</text><polyline points="50.00,451.91 107.35,453.11 164.71,453.64 222.06,453.79 279.41,453.67 336.76,453.15 394.12,452.35 451.47,451.23 508.82,450.12 566.18,448.79 623.53,447.33 680.88,445.55 738.24,443.40 795.59,441.04 852.94,438.02 910.29,434.55 967.65,430.56 1025.00,426.08" fill="none" stroke="#f1c40f" stroke-width="1.6" opacity="1" stroke-linejoin="round"/><text x="290.00" y="390.00" fill="#f1c40f" font-size="10" font-family="Segoe UI,Arial,sans-serif" text-anchor="start">Señal MACD</text><polyline points="50.00,554.60 1025.00,554.60" fill="none" stroke="#253a60" stroke-width="1" opacity="1" stroke-linejoin="round" stroke-dasharray="4 5"/><text x="1038.00" y="558.60" fill="#9aaec7" font-size="9" font-family="Segoe UI,Arial,sans-serif" text-anchor="start">20</text><polyline points="50.00,537.33 107.35,537.68 164.71,538.00 222.06,538.00 279.41,538.06 336.76,537.89 394.12,537.73 451.47,538.29 508.82,538.69 566.18,538.76 623.53,538.84 680.88,539.64 738.24,540.88 795.59,542.33 852.94,543.56 910.29,544.03 967.65,544.17 1025.00,543.77" fill="none" stroke="#b38af6" stroke-width="1.6" opacity="1" stroke-linejoin="round"/><text x="50.00" y="489.00" fill="#b38af6" font-size="10" font-family="Segoe UI,Arial,sans-serif" text-anchor="start">ADX 14</text></svg>
