<svg xmlns="http://www.w3.org/2000/svg" viewBox="0 0 1100 600" role="img"><title>Señal, entrada y salida calculadas por el motor de backtesting</title><desc>Resultado del motor de backtesting sobre datos sintéticos.</desc><rect width="1100" height="600" fill="#0d1424"/><text x="50.00" y="23.00" fill="#9aaec7" font-size="11" font-family="Segoe UI,Arial,sans-serif" text-anchor="start">H1 · UTC · DETALLE DE OPERACIÓN</text><text x="480.00" y="23.00" fill="#f1c40f" font-size="10" font-family="Segoe UI,Arial,sans-serif" text-anchor="start">S = SEÑAL AL CIERRE</text><text x="680.00" y="23.00" fill="#2ecc71" font-size="10" font-family="Segoe UI,Arial,sans-serif" text-anchor="start">E = ENTRADA AL OPEN</text><text x="885.00" y="23.00" fill="#4fc3f7" font-size="10" font-family="Segoe UI,Arial,sans-serif" text-anchor="start">X = SALIDA</text><path d="M50 340.00H1025" stroke="#253a60" opacity=".6"/><text x="1038.00" y="344.00" fill="#9aaec7" font-size="10" font-family="Segoe UI,Arial,sans-serif" text-anchor="start">109.83</text><path d="M50 287.40H1025" stroke="#253a60" opacity=".6"/><text x="1038.00" y="291.40" fill="#9aaec7" font-size="10" font-family="Segoe UI,Arial,sans-serif" text-anchor="start">112.13</text><path d="M50 234.80H1025" stroke="#253a60" opacity=".6"/><text x="1038.00" y="238.80" fill="#9aaec7" font-size="10" font-family="Segoe UI,Arial,sans-serif" text-anchor="start">114.44</text><path d="M50 182.20H1025" stroke="#253a60" opacity=".6"/><text x="1038.00" y="186.20" fill="#9aaec7" font-size="10" font-family="Segoe UI,Arial,sans-serif" text-anchor="start">116.74</text><path d="M50 129.60H1025" stroke="#253a60" opacity=".6"/><text x="1038.00" y="133.60" fill="#9aaec7" font-size="10" font-family="Segoe UI,Arial,sans-serif" text-anchor="start">119.04</text><path d="M50 77.00H1025" stroke="#253a60" opacity=".6"/><text x="1038.00" y="81.00" fill="#9aaec7" font-size="10" font-family="Segoe UI,Arial,sans-serif" text-anchor="start">121.35</text><path d="M50.00 77V568" stroke="#253a60" opacity=".4"/><text x="50.00" y="591.00" fill="#9aaec7" font-size="10" font-family="Segoe UI,Arial,sans-serif" text-anchor="middle">V217</text><path d="M219.57 77V568" stroke="#253a60" opacity=".4"/><text x="219.57" y="591.00" fill="#9aaec7" font-size="10" font-family="Segoe UI,Arial,sans-serif" text-anchor="middle">V221</text><path d="M261.96 77V568" stroke="#253a60" opacity=".4"/><text x="261.96" y="591.00" fill="#9aaec7" font-size="10" font-family="Segoe UI,Arial,sans-serif" text-anchor="middle">V222</text><path d="M389.13 77V568" stroke="#253a60" opacity=".4"/><text x="389.13" y="591.00" fill="#9aaec7" font-size="10" font-family="Segoe UI,Arial,sans-serif" text-anchor="middle">V225</text><path d="M558.70 77V568" stroke="#253a60" opacity=".4"/><text x="558.70" y="591.00" fill="#9aaec7" font-size="10" font-family="Segoe UI,Arial,sans-serif" text-anchor="middle">V229</text><path d="M685.87 77V568" stroke="#253a60" opacity=".4"/><text x="685.87" y="591.00" fill="#9aaec7" font-size="10" font-family="Segoe UI,Arial,sans-serif" text-anchor="middle">V232</text><path d="M855.43 77V568" stroke="#253a60" opacity=".4"/><text x="855.43" y="591.00" fill="#9aaec7" font-size="10" font-family="Segoe UI,Arial,sans-serif" text-anchor="middle">V236</text><path d="M897.83 77V568" stroke="#253a60" opacity=".4"/><text x="897.83" y="591.00" fill="#9aaec7" font-size="10" font-family="Segoe UI,Arial,sans-serif" text-anchor="middle">V237</text><path d="M1025.00 77V568" stroke="#253a60" opacity=".4"/><text x="1025.00" y="591.00" fill="#9aaec7" font-size="10" font-family="Segoe UI,Arial,sans-serif" text-anchor="middle">V240</text><polyline points="50.00,227.08 92.39,239.83 134.78,252.69 177.17,265.94 219.57,278.04 261.96,288.46 304.35,298.53 346.74,306.39 389.13,313.17 431.52,319.99 473.91,325.93 516.30,330.74 558.70,334.90 601.09,337.27 643.48,339.62 685.87,340.52 728.26,340.05 770.65,337.55 813.04,334.18 855.43,329.65 897.83,323.39 940.22,318.07 982.61,314.64 1025.00,316.54" fill="none" stroke="#b38af6" stroke-width="1.7" opacity="0.9" stroke-linejoin="round"/><text x="50.00" y="51.00" fill="#b38af6" font-size="10" font-family="Segoe UI,Arial,sans-serif" text-anchor="start">Bollinger inferior 30 / 2σ</text><polyline points="50.00,55.31 92.39,47.69 134.78,41.52 177.17,36.39 219.57,32.56 261.96,31.25 304.35,31.67 346.74,33.15 389.13,35.64 431.52,38.67 473.91,43.59 516.30,48.10 558.70,53.38 601.09,60.78 643.48,68.94 685.87,77.46 728.26,87.65 770.65,99.06 813.04,110.01 855.43,121.78 897.83,133.43 940.22,142.59 982.61,147.96 1025.00,145.01" fill="none" stroke="#b38af6" stroke-width="1.7" opacity="0.9" stroke-linejoin="round"/><text x="310.00" y="51.00" fill="#b38af6" font-size="10" font-family="Segoe UI,Arial,sans-serif" text-anchor="start">Bollinger superior</text><polyline points="50.00,141.19 92.39,143.76 134.78,147.10 177.17,151.16 219.57,155.30 261.96,159.86 304.35,165.10 346.74,169.77 389.13,174.40 431.52,179.33 473.91,184.76 516.30,189.42 558.70,194.14 601.09,199.03 643.48,204.28 685.87,208.99 728.26,213.85 770.65,218.31 813.04,222.10 855.43,225.71 897.83,228.41 940.22,230.33 982.61,231.30 1025.00,230.77" fill="none" stroke="#4fc3f7" stroke-width="1.7" opacity="0.9" stroke-linejoin="round"/><text x="570.00" y="51.00" fill="#4fc3f7" font-size="10" font-family="Segoe UI,Arial,sans-serif" text-anchor="start">Media de Bollinger</text><path d="M50.00 215.05V268.21" stroke="#e74c3c" stroke-width="1" opacity=".75"/><rect x="46.00" y="228.97" width="8.00" height="23.74" fill="#e74c3c" opacity=".85"/><path d="M92.39 246.08V290.53" stroke="#e74c3c" stroke-width="1" opacity=".75"/><rect x="88.39" y="256.39" width="8.00" height="14.89" fill="#e74c3c" opacity=".85"/><path d="M134.78 252.14V285.54" stroke="#2ecc71" stroke-width="1" opacity=".75"/><rect x="130.78" y="267.32" width="8.00" height="1.39" fill="#2ecc71" opacity=".85"/><path d="M177.17 262.03V281.51" stroke="#e74c3c" stroke-width="1" opacity=".75"/><rect x="173.17" y="270.01" width="8.00" height="2.37" fill="#e74c3c" opacity=".85"/><path d="M219.57 251.08V280.50" stroke="#e74c3c" stroke-width="1" opacity=".75"/><rect x="215.57" y="266.70" width="8.00" height="5.74" fill="#e74c3c" opacity=".85"/><path d="M261.96 258.28V291.32" stroke="#2ecc71" stroke-width="1" opacity=".75"/><rect x="257.96" y="266.41" width="8.00" height="6.15" fill="#2ecc71" opacity=".85"/><path d="M304.35 256.54V282.64" stroke="#e74c3c" stroke-width="1" opacity=".75"/><rect x="300.35" y="265.70" width="8.00" height="5.54" fill="#e74c3c" opacity=".85"/><path d="M346.74 244.36V285.39" stroke="#2ecc71" stroke-width="1" opacity=".75"/><rect x="342.74" y="260.51" width="8.00" height="6.66" fill="#2ecc71" opacity=".85"/><path d="M389.13 248.13V264.54" stroke="#e74c3c" stroke-width="1" opacity=".75"/><rect x="385.13" y="256.19" width="8.00" height="1.39" fill="#e74c3c" opacity=".85"/><path d="M431.52 247.25V278.87" stroke="#e74c3c" stroke-width="1" opacity=".75"/><rect x="427.52" y="260.54" width="8.00" height="3.66" fill="#e74c3c" opacity=".85"/><path d="M473.91 246.07V273.71" stroke="#e74c3c" stroke-width="1" opacity=".75"/><rect x="469.91" y="261.48" width="8.00" height="5.33" fill="#e74c3c" opacity=".85"/><path d="M516.30 242.46V284.36" stroke="#2ecc71" stroke-width="1" opacity=".75"/><rect x="512.30" y="258.15" width="8.00" height="9.67" fill="#2ecc71" opacity=".85"/><path d="M558.70 245.71V268.50" stroke="#2ecc71" stroke-width="1" opacity=".75"/><rect x="554.70" y="258.38" width="8.00" height="2.50" fill="#2ecc71" opacity=".85"/><path d="M601.09 233.48V267.85" stroke="#2ecc71" stroke-width="1" opacity=".75"/><rect x="597.09" y="251.87" width="8.00" height="5.95" fill="#2ecc71" opacity=".85"/><path d="M643.48 237.90V272.05" stroke="#e74c3c" stroke-width="1" opacity=".75"/><rect x="639.48" y="254.62" width="8.00" height="7.01" fill="#e74c3c" opacity=".85"/><path d="M685.87 231.43V283.92" stroke="#2ecc71" stroke-width="1" opacity=".75"/><rect x="681.87" y="250.25" width="8.00" height="15.32" fill="#2ecc71" opacity=".85"/><path d="M728.26 235.15V257.48" stroke="#e74c3c" stroke-width="1" opacity=".75"/><rect x="724.26" y="247.35" width="8.00" height="1.68" fill="#e74c3c" opacity=".85"/><path d="M770.65 222.26V264.25" stroke="#2ecc71" stroke-width="1" opacity=".75"/><rect x="766.65" y="234.95" width="8.00" height="14.66" fill="#2ecc71" opacity=".85"/><path d="M813.04 212.32V252.62" stroke="#2ecc71" stroke-width="1" opacity=".75"/><rect x="809.04" y="222.48" width="8.00" height="13.19" fill="#2ecc71" opacity=".85"/><path d="M855.43 206.02V234.03" stroke="#2ecc71" stroke-width="1" opacity=".75"/><rect x="851.43" y="217.31" width="8.00" height="1.00" fill="#2ecc71" opacity=".85"/><path d="M897.83 177.24V229.11" stroke="#2ecc71" stroke-width="1" opacity=".75"/><rect x="893.83" y="185.05" width="8.00" height="36.16" fill="#2ecc71" opacity=".85"/><path d="M940.22 152.80V199.79" stroke="#2ecc71" stroke-width="1" opacity=".75"/><rect x="936.22" y="171.92" width="8.00" height="14.22" fill="#2ecc71" opacity=".85"/><path d="M982.61 139.85V187.24" stroke="#2ecc71" stroke-width="1" opacity=".75"/><rect x="978.61" y="148.17" width="8.00" height="20.43" fill="#2ecc71" opacity=".85"/><path d="M1025.00 111.26V158.60" stroke="#2ecc71" stroke-width="1" opacity=".75"/><rect x="1021.00" y="125.59" width="8.00" height="18.74" fill="#2ecc71" opacity=".85"/><polyline points="261.96,272.04 897.83,221.73" fill="none" stroke="#2ecc71" stroke-width="1.2" opacity="0.55" stroke-linejoin="round" stroke-dasharray="3 3"/><polyline points="261.96,328.58 897.83,328.58" fill="none" stroke="#e74c3c" stroke-width="1.2" opacity="0.7" stroke-linejoin="round" stroke-dasharray="5 4"/><text x="905.83" y="324.58" fill="#e74c3c" font-size="9" font-family="Segoe UI,Arial,sans-serif" text-anchor="start">STOP INICIAL</text><polyline points="261.96,158.96 897.83,158.96" fill="none" stroke="#f1c40f" stroke-width="1.2" opacity="0.7" stroke-linejoin="round" stroke-dasharray="5 4"/><text x="905.83" y="154.96" fill="#f1c40f" font-size="9" font-family="Segoe UI,Arial,sans-serif" text-anchor="start">TP 2R</text><g><title>Señal #2: cierre de V221, 112.78957</title><path d="M219.57 268.44l4 4-4 4-4-4Z" fill="#f1c40f"/><text x="219.57" y="261.44" fill="#f1c40f" font-size="9" font-family="Segoe UI,Arial,sans-serif" text-anchor="middle">S</text></g><g><title>Entrada #2: apertura de V222, open 112.78456, fill 112.80711</title><path d="M261.96 272.04l-5 8h10Z" fill="#2ecc71"/><text x="261.96" y="292.04" fill="#2ecc71" font-size="9" font-family="Segoe UI,Arial,sans-serif" text-anchor="middle">E</text></g><g><title>Salida #2: V237, Señal (apertura), fill 115.01017</title><path d="M893.83 217.73l8 8m-8 0 8-8" stroke="#4fc3f7" stroke-width="1.7"/></g><path d="M50 370H1025" stroke="#253a60"/><polyline points="50.00,520.40 1025.00,520.40" fill="none" stroke="#253a60" stroke-width="1" opacity="1" stroke-linejoin="round" stroke-dasharray="4 5"/><text x="1038.00" y="524.40" fill="#9aaec7" font-size="9" font-family="Segoe UI,Arial,sans-serif" text-anchor="start">30</text><polyline points="50.00,505.20 1025.00,505.20" fill="none" stroke="#253a60" stroke-width="1" opacity="1" stroke-linejoin="round" stroke-dasharray="4 5"/><text x="1038.00" y="509.20" fill="#9aaec7" font-size="9" font-family="Segoe UI,Arial,sans-serif" text-anchor="start">40</text><polyline points="50.00,459.60 1025.00,459.60" fill="none" stroke="#253a60" stroke-width="1" opacity="1" stroke-linejoin="round" stroke-dasharray="4 5"/><text x="1038.00" y="463.60" fill="#9aaec7" font-size="9" font-family="Segoe UI,Arial,sans-serif" text-anchor="start">70</text><polyline points="50.00,532.49 92.39,536.15 134.78,533.16 177.17,534.23 219.57,534.24 261.96,529.06 304.35,530.38 346.74,521.20 389.13,518.76 431.52,521.24 473.91,522.21 516.30,514.41 558.70,514.52 601.09,508.59 643.48,513.58 685.87,503.78 728.26,502.78 770.65,491.90 813.04,483.75 855.43,480.64 897.83,465.26 940.22,460.56 982.61,453.50 1025.00,448.19" fill="none" stroke="#b38af6" stroke-width="1.6" opacity="1" stroke-linejoin="round"/><text x="50.00" y="402.00" fill="#b38af6" font-size="10" font-family="Segoe UI,Arial,sans-serif" text-anchor="start">RSI 14</text></svg>
