<svg xmlns="http://www.w3.org/2000/svg" viewBox="0 0 1100 520" role="img"><title>Curva de capital y drawdown del motor real</title><desc>Resultado del motor de backtesting sobre datos sintéticos.</desc><rect width="1100" height="520" fill="#0d1424"/><text x="50.00" y="30.00" fill="#4fc3f7" font-size="12" font-family="Segoe UI,Arial,sans-serif" text-anchor="start">CAPITAL Y DRAWDOWN · MOTOR REAL / DATOS SINTÉTICOS</text><text x="1025.00" y="30.00" fill="#9aaec7" font-size="10" font-family="Segoe UI,Arial,sans-serif" text-anchor="end">INICIAL: 10.000 U.M.</text><rect x="735.36" y="60" width="289.64" height="425" fill="#2ecc71" opacity=".035"/><polyline points="50.00,320.00 1025.00,320.00" fill="none" stroke="#253a60" stroke-width="1" opacity="0.6" stroke-linejoin="round"/><text x="1038.00" y="324.00" fill="#9aaec7" font-size="10" font-family="Segoe UI,Arial,sans-serif" text-anchor="start">9958</text><polyline points="50.00,259.50 1025.00,259.50" fill="none" stroke="#253a60" stroke-width="1" opacity="0.6" stroke-linejoin="round"/><text x="1038.00" y="263.50" fill="#9aaec7" font-size="10" font-family="Segoe UI,Arial,sans-serif" text-anchor="start">10037</text><polyline points="50.00,199.00 1025.00,199.00" fill="none" stroke="#253a60" stroke-width="1" opacity="0.6" stroke-linejoin="round"/><text x="1038.00" y="203.00" fill="#9aaec7" font-size="10" font-family="Segoe UI,Arial,sans-serif" text-anchor="start">10116</text><polyline points="50.00,138.50 1025.00,138.50" fill="none" stroke="#253a60" stroke-width="1" opacity="0.6" stroke-linejoin="round"/><text x="1038.00" y="142.50" fill="#9aaec7" font-size="10" font-family="Segoe UI,Arial,sans-serif" text-anchor="start">10195</text><polyline points="50.00,78.00 1025.00,78.00" fill="none" stroke="#253a60" stroke-width="1" opacity="0.6" stroke-linejoin="round"/><text x="1038.00" y="82.00" fill="#9aaec7" font-size="10" font-family="Segoe UI,Arial,sans-serif" text-anchor="start">10273</text><polyline points="50.00,287.91 54.08,287.91 58.16,287.91 62.24,287.91 66.32,287.91 70.40,287.91 74.48,287.91 78.56,287.91 82.64,287.91 86.72,287.91 90.79,287.91 94.87,287.91 98.95,287.91 103.03,287.91 107.11,287.91 111.19,287.91 115.27,287.91 119.35,287.91 123.43,287.91 127.51,287.91 131.59,287.91 135.67,287.91 139.75,287.91 143.83,287.91 147.91,287.91 151.99,287.91 156.07,287.91 160.15,287.91 164.23,287.91 168.31,287.91 172.38,287.91 176.46,287.91 180.54,287.91 184.62,287.91 188.70,287.91 192.78,287.91 196.86,287.91 200.94,287.91 205.02,287.91 209.10,287.91 213.18,287.91 217.26,287.91 221.34,287.91 225.42,287.91 229.50,287.91 233.58,287.91 237.66,287.91 241.74,287.91 245.82,287.91 249.90,287.91 253.97,287.91 258.05,287.91 262.13,287.91 266.21,287.91 270.29,287.91 274.37,287.91 278.45,287.91 282.53,287.91 286.61,287.91 290.69,287.91 294.77,287.91 298.85,287.91 302.93,287.91 307.01,287.91 311.09,287.91 315.17,287.91 319.25,287.91 323.33,287.91 327.41,287.91 331.49,287.91 335.56,287.91 339.64,287.91 343.72,287.91 347.80,287.91 351.88,287.91 355.96,287.91 360.04,287.91 364.12,287.91 368.20,287.91 372.28,287.91 376.36,287.91 380.44,287.91 384.52,293.14 388.60,290.19 392.68,278.87 396.76,264.90 400.84,258.11 404.92,230.23 409.00,222.32 413.08,210.94 417.15,196.32 421.23,194.13 425.31,181.08 429.39,180.20 433.47,180.20 437.55,180.20 441.63,180.20 445.71,180.20 449.79,180.20 453.87,180.20 457.95,180.20 462.03,180.20 466.11,180.20 470.19,180.20 474.27,180.20 478.35,180.20 482.43,180.20 486.51,180.20 490.59,180.20 494.67,180.20 498.74,180.20 502.82,180.20 506.90,180.20 510.98,180.20 515.06,180.20 519.14,180.20 523.22,180.20 527.30,180.20 531.38,180.20 535.46,180.20 539.54,180.20 543.62,180.20 547.70,180.20 551.78,180.20 555.86,180.20 559.94,180.20 564.02,180.20 568.10,180.20 572.18,180.20 576.26,180.20 580.33,180.20 584.41,180.20 588.49,180.20 592.57,180.20 596.65,180.20 600.73,180.20 604.81,180.20 608.89,180.20 612.97,180.20 617.05,180.20 621.13,180.20 625.21,180.20 629.29,180.20 633.37,180.20 637.45,180.20 641.53,180.20 645.61,180.20 649.69,180.20 653.77,180.20 657.85,180.20 661.92,180.20 666.00,180.20 670.08,180.20 674.16,180.20 678.24,180.20 682.32,180.20 686.40,180.20 690.48,180.20 694.56,180.20 698.64,180.20 702.72,180.20 706.80,180.20 710.88,180.20 714.96,180.20 719.04,180.20 723.12,180.20 727.20,180.20 731.28,180.20 735.36,180.20 739.44,180.20 743.51,180.20 747.59,180.20 751.67,180.20 755.75,180.20 759.83,180.20 763.91,180.20 767.99,180.20 772.07,180.20 776.15,180.20 780.23,180.20 784.31,180.20 788.39,180.20 792.47,180.20 796.55,180.20 800.63,180.20 804.71,180.20 808.79,180.20 812.87,180.20 816.95,180.20 821.03,180.20 825.10,180.20 829.18,180.20 833.26,180.20 837.34,180.20 841.42,180.20 845.50,180.20 849.58,180.20 853.66,180.20 857.74,180.20 861.82,180.20 865.90,180.20 869.98,180.20 874.06,180.20 878.14,180.20 882.22,180.20 886.30,180.20 890.38,180.20 894.46,180.20 898.54,180.20 902.62,180.20 906.69,180.20 910.77,180.20 914.85,180.20 918.93,180.20 923.01,180.20 927.09,180.20 931.17,180.20 935.25,180.20 939.33,180.20 943.41,180.20 947.49,180.20 951.57,172.44 955.65,179.10 959.73,164.32 963.81,160.29 967.89,169.41 971.97,173.01 976.05,161.08 980.13,161.40 984.21,152.43 988.28,165.88 992.36,150.20 996.44,148.54 1000.52,129.14 1004.60,111.98 1008.68,104.86 1012.76,114.53 1016.84,114.53 1020.92,114.53 1025.00,114.53" fill="none" stroke="#4fc3f7" stroke-width="2.1" opacity="1" stroke-linejoin="round"/><polyline points="735.36,60.00 735.36,485.00" fill="none" stroke="#4fc3f7" stroke-width="1" opacity="0.5" stroke-linejoin="round" stroke-dasharray="4 5"/><text x="721.36" y="57.00" fill="#4fc3f7" font-size="10" font-family="Segoe UI,Arial,sans-serif" text-anchor="end">IS</text><text x="749.36" y="57.00" fill="#2ecc71" font-size="10" font-family="Segoe UI,Arial,sans-serif" text-anchor="start">OOS</text><text x="50.00" y="368.00" fill="#e74c3c" font-size="10" font-family="Segoe UI,Arial,sans-serif" text-anchor="start">DRAWDOWN · MARCADO A MERCADO</text><polyline points="50.00,391.00 1025.00,391.00" fill="none" stroke="#253a60" stroke-width="1" opacity="1" stroke-linejoin="round"/><polygon points="50,391 50.00,391.00 54.08,391.00 58.16,391.00 62.24,391.00 66.32,391.00 70.40,391.00 74.48,391.00 78.56,391.00 82.64,391.00 86.72,391.00 90.79,391.00 94.87,391.00 98.95,391.00 103.03,391.00 107.11,391.00 111.19,391.00 115.27,391.00 119.35,391.00 123.43,391.00 127.51,391.00 131.59,391.00 135.67,391.00 139.75,391.00 143.83,391.00 147.91,391.00 151.99,391.00 156.07,391.00 160.15,391.00 164.23,391.00 168.31,391.00 172.38,391.00 176.46,391.00 180.54,391.00 184.62,391.00 188.70,391.00 192.78,391.00 196.86,391.00 200.94,391.00 205.02,391.00 209.10,391.00 213.18,391.00 217.26,391.00 221.34,391.00 225.42,391.00 229.50,391.00 233.58,391.00 237.66,391.00 241.74,391.00 245.82,391.00 249.90,391.00 253.97,391.00 258.05,391.00 262.13,391.00 266.21,391.00 270.29,391.00 274.37,391.00 278.45,391.00 282.53,391.00 286.61,391.00 290.69,391.00 294.77,391.00 298.85,391.00 302.93,391.00 307.01,391.00 311.09,391.00 315.17,391.00 319.25,391.00 323.33,391.00 327.41,391.00 331.49,391.00 335.56,391.00 339.64,391.00 343.72,391.00 347.80,391.00 351.88,391.00 355.96,391.00 360.04,391.00 364.12,391.00 368.20,391.00 372.28,391.00 376.36,391.00 380.44,391.00 384.52,422.64 388.60,404.82 392.68,391.00 396.76,391.00 400.84,391.00 404.92,391.00 409.00,391.00 413.08,391.00 417.15,391.00 421.23,391.00 425.31,391.00 429.39,391.00 433.47,391.00 437.55,391.00 441.63,391.00 445.71,391.00 449.79,391.00 453.87,391.00 457.95,391.00 462.03,391.00 466.11,391.00 470.19,391.00 474.27,391.00 478.35,391.00 482.43,391.00 486.51,391.00 490.59,391.00 494.67,391.00 498.74,391.00 502.82,391.00 506.90,391.00 510.98,391.00 515.06,391.00 519.14,391.00 523.22,391.00 527.30,391.00 531.38,391.00 535.46,391.00 539.54,391.00 543.62,391.00 547.70,391.00 551.78,391.00 555.86,391.00 559.94,391.00 564.02,391.00 568.10,391.00 572.18,391.00 576.26,391.00 580.33,391.00 584.41,391.00 588.49,391.00 592.57,391.00 596.65,391.00 600.73,391.00 604.81,391.00 608.89,391.00 612.97,391.00 617.05,391.00 621.13,391.00 625.21,391.00 629.29,391.00 633.37,391.00 637.45,391.00 641.53,391.00 645.61,391.00 649.69,391.00 653.77,391.00 657.85,391.00 661.92,391.00 666.00,391.00 670.08,391.00 674.16,391.00 678.24,391.00 682.32,391.00 686.40,391.00 690.48,391.00 694.56,391.00 698.64,391.00 702.72,391.00 706.80,391.00 710.88,391.00 714.96,391.00 719.04,391.00 723.12,391.00 727.20,391.00 731.28,391.00 735.36,391.00 739.44,391.00 743.51,391.00 747.59,391.00 751.67,391.00 755.75,391.00 759.83,391.00 763.91,391.00 767.99,391.00 772.07,391.00 776.15,391.00 780.23,391.00 784.31,391.00 788.39,391.00 792.47,391.00 796.55,391.00 800.63,391.00 804.71,391.00 808.79,391.00 812.87,391.00 816.95,391.00 821.03,391.00 825.10,391.00 829.18,391.00 833.26,391.00 837.34,391.00 841.42,391.00 845.50,391.00 849.58,391.00 853.66,391.00 857.74,391.00 861.82,391.00 865.90,391.00 869.98,391.00 874.06,391.00 878.14,391.00 882.22,391.00 886.30,391.00 890.38,391.00 894.46,391.00 898.54,391.00 902.62,391.00 906.69,391.00 910.77,391.00 914.85,391.00 918.93,391.00 923.01,391.00 927.09,391.00 931.17,391.00 935.25,391.00 939.33,391.00 943.41,391.00 947.49,391.00 951.57,391.00 955.65,430.69 959.73,391.00 963.81,391.00 967.89,445.29 971.97,466.71 976.05,395.73 980.13,397.64 984.21,391.00 988.28,471.00 992.36,391.00 996.44,391.00 1000.52,391.00 1004.60,391.00 1008.68,391.00 1012.76,448.11 1016.84,448.11 1020.92,448.11 1025.00,448.11 1025,391" fill="#e74c3c" opacity=".12"/><polyline points="50.00,391.00 54.08,391.00 58.16,391.00 62.24,391.00 66.32,391.00 70.40,391.00 74.48,391.00 78.56,391.00 82.64,391.00 86.72,391.00 90.79,391.00 94.87,391.00 98.95,391.00 103.03,391.00 107.11,391.00 111.19,391.00 115.27,391.00 119.35,391.00 123.43,391.00 127.51,391.00 131.59,391.00 135.67,391.00 139.75,391.00 143.83,391.00 147.91,391.00 151.99,391.00 156.07,391.00 160.15,391.00 164.23,391.00 168.31,391.00 172.38,391.00 176.46,391.00 180.54,391.00 184.62,391.00 188.70,391.00 192.78,391.00 196.86,391.00 200.94,391.00 205.02,391.00 209.10,391.00 213.18,391.00 217.26,391.00 221.34,391.00 225.42,391.00 229.50,391.00 233.58,391.00 237.66,391.00 241.74,391.00 245.82,391.00 249.90,391.00 253.97,391.00 258.05,391.00 262.13,391.00 266.21,391.00 270.29,391.00 274.37,391.00 278.45,391.00 282.53,391.00 286.61,391.00 290.69,391.00 294.77,391.00 298.85,391.00 302.93,391.00 307.01,391.00 311.09,391.00 315.17,391.00 319.25,391.00 323.33,391.00 327.41,391.00 331.49,391.00 335.56,391.00 339.64,391.00 343.72,391.00 347.80,391.00 351.88,391.00 355.96,391.00 360.04,391.00 364.12,391.00 368.20,391.00 372.28,391.00 376.36,391.00 380.44,391.00 384.52,422.64 388.60,404.82 392.68,391.00 396.76,391.00 400.84,391.00 404.92,391.00 409.00,391.00 413.08,391.00 417.15,391.00 421.23,391.00 425.31,391.00 429.39,391.00 433.47,391.00 437.55,391.00 441.63,391.00 445.71,391.00 449.79,391.00 453.87,391.00 457.95,391.00 462.03,391.00 466.11,391.00 470.19,391.00 474.27,391.00 478.35,391.00 482.43,391.00 486.51,391.00 490.59,391.00 494.67,391.00 498.74,391.00 502.82,391.00 506.90,391.00 510.98,391.00 515.06,391.00 519.14,391.00 523.22,391.00 527.30,391.00 531.38,391.00 535.46,391.00 539.54,391.00 543.62,391.00 547.70,391.00 551.78,391.00 555.86,391.00 559.94,391.00 564.02,391.00 568.10,391.00 572.18,391.00 576.26,391.00 580.33,391.00 584.41,391.00 588.49,391.00 592.57,391.00 596.65,391.00 600.73,391.00 604.81,391.00 608.89,391.00 612.97,391.00 617.05,391.00 621.13,391.00 625.21,391.00 629.29,391.00 633.37,391.00 637.45,391.00 641.53,391.00 645.61,391.00 649.69,391.00 653.77,391.00 657.85,391.00 661.92,391.00 666.00,391.00 670.08,391.00 674.16,391.00 678.24,391.00 682.32,391.00 686.40,391.00 690.48,391.00 694.56,391.00 698.64,391.00 702.72,391.00 706.80,391.00 710.88,391.00 714.96,391.00 719.04,391.00 723.12,391.00 727.20,391.00 731.28,391.00 735.36,391.00 739.44,391.00 743.51,391.00 747.59,391.00 751.67,391.00 755.75,391.00 759.83,391.00 763.91,391.00 767.99,391.00 772.07,391.00 776.15,391.00 780.23,391.00 784.31,391.00 788.39,391.00 792.47,391.00 796.55,391.00 800.63,391.00 804.71,391.00 808.79,391.00 812.87,391.00 816.95,391.00 821.03,391.00 825.10,391.00 829.18,391.00 833.26,391.00 837.34,391.00 841.42,391.00 845.50,391.00 849.58,391.00 853.66,391.00 857.74,391.00 861.82,391.00 865.90,391.00 869.98,391.00 874.06,391.00 878.14,391.00 882.22,391.00 886.30,391.00 890.38,391.00 894.46,391.00 898.54,391.00 902.62,391.00 906.69,391.00 910.77,391.00 914.85,391.00 918.93,391.00 923.01,391.00 927.09,391.00 931.17,391.00 935.25,391.00 939.33,391.00 943.41,391.00 947.49,391.00 951.57,391.00 955.65,430.69 959.73,391.00 963.81,391.00 967.89,445.29 971.97,466.71 976.05,395.73 980.13,397.64 984.21,391.00 988.28,471.00 992.36,391.00 996.44,391.00 1000.52,391.00 1004.60,391.00 1008.68,391.00 1012.76,448.11 1016.84,448.11 1020.92,448.11 1025.00,448.11" fill="none" stroke="#e74c3c" stroke-width="1.4" opacity="0.8" stroke-linejoin="round"/><text x="1038.00" y="395.00" fill="#9aaec7" font-size="9" font-family="Segoe UI,Arial,sans-serif" text-anchor="start">0 %</text><text x="1038.00" y="475.00" fill="#9aaec7" font-size="9" font-family="Segoe UI,Arial,sans-serif" text-anchor="start">−0.17 %</text><text x="50.00" y="509.00" fill="#9aaec7" font-size="10" font-family="Segoe UI,Arial,sans-serif" text-anchor="middle">V1</text><text x="213.18" y="509.00" fill="#9aaec7" font-size="10" font-family="Segoe UI,Arial,sans-serif" text-anchor="middle">V41</text><text x="376.36" y="509.00" fill="#9aaec7" font-size="10" font-family="Segoe UI,Arial,sans-serif" text-anchor="middle">V81</text><text x="539.54" y="509.00" fill="#9aaec7" font-size="10" font-family="Segoe UI,Arial,sans-serif" text-anchor="middle">V121</text><text x="698.64" y="509.00" fill="#9aaec7" font-size="10" font-family="Segoe UI,Arial,sans-serif" text-anchor="middle">V160</text><text x="861.82" y="509.00" fill="#9aaec7" font-size="10" font-family="Segoe UI,Arial,sans-serif" text-anchor="middle">V200</text><text x="1025.00" y="509.00" fill="#9aaec7" font-size="10" font-family="Segoe UI,Arial,sans-serif" text-anchor="middle">V240</text></svg>
