<svg xmlns="http://www.w3.org/2000/svg" viewBox="0 0 1100 600" role="img"><title>Señal, entrada y salida calculadas por el motor de backtesting</title><desc>Resultado del motor de backtesting sobre datos sintéticos.</desc><rect width="1100" height="600" fill="#0d1424"/><text x="50.00" y="23.00" fill="#9aaec7" font-size="11" font-family="Segoe UI,Arial,sans-serif" text-anchor="start">H1 · UTC · DETALLE DE OPERACIÓN</text><text x="480.00" y="23.00" fill="#f1c40f" font-size="10" font-family="Segoe UI,Arial,sans-serif" text-anchor="start">S = SEÑAL AL CIERRE</text><text x="680.00" y="23.00" fill="#2ecc71" font-size="10" font-family="Segoe UI,Arial,sans-serif" text-anchor="start">E = ENTRADA AL OPEN</text><text x="885.00" y="23.00" fill="#4fc3f7" font-size="10" font-family="Segoe UI,Arial,sans-serif" text-anchor="start">X = SALIDA</text><path d="M50 340.00H1025" stroke="#253a60" opacity=".6"/><text x="1038.00" y="344.00" fill="#9aaec7" font-size="10" font-family="Segoe UI,Arial,sans-serif" text-anchor="start">109.81</text><path d="M50 287.40H1025" stroke="#253a60" opacity=".6"/><text x="1038.00" y="291.40" fill="#9aaec7" font-size="10" font-family="Segoe UI,Arial,sans-serif" text-anchor="start">111.57</text><path d="M50 234.80H1025" stroke="#253a60" opacity=".6"/><text x="1038.00" y="238.80" fill="#9aaec7" font-size="10" font-family="Segoe UI,Arial,sans-serif" text-anchor="start">113.34</text><path d="M50 182.20H1025" stroke="#253a60" opacity=".6"/><text x="1038.00" y="186.20" fill="#9aaec7" font-size="10" font-family="Segoe UI,Arial,sans-serif" text-anchor="start">115.11</text><path d="M50 129.60H1025" stroke="#253a60" opacity=".6"/><text x="1038.00" y="133.60" fill="#9aaec7" font-size="10" font-family="Segoe UI,Arial,sans-serif" text-anchor="start">116.88</text><path d="M50 77.00H1025" stroke="#253a60" opacity=".6"/><text x="1038.00" y="81.00" fill="#9aaec7" font-size="10" font-family="Segoe UI,Arial,sans-serif" text-anchor="start">118.64</text><path d="M50.00 77V568" stroke="#253a60" opacity=".4"/><text x="50.00" y="591.00" fill="#9aaec7" font-size="10" font-family="Segoe UI,Arial,sans-serif" text-anchor="middle">V215</text><path d="M227.27 77V568" stroke="#253a60" opacity=".4"/><text x="227.27" y="591.00" fill="#9aaec7" font-size="10" font-family="Segoe UI,Arial,sans-serif" text-anchor="middle">V219</text><path d="M271.59 77V568" stroke="#253a60" opacity=".4"/><text x="271.59" y="591.00" fill="#9aaec7" font-size="10" font-family="Segoe UI,Arial,sans-serif" text-anchor="middle">V220</text><path d="M360.23 77V568" stroke="#253a60" opacity=".4"/><text x="360.23" y="591.00" fill="#9aaec7" font-size="10" font-family="Segoe UI,Arial,sans-serif" text-anchor="middle">V222</text><path d="M537.50 77V568" stroke="#253a60" opacity=".4"/><text x="537.50" y="591.00" fill="#9aaec7" font-size="10" font-family="Segoe UI,Arial,sans-serif" text-anchor="middle">V226</text><path d="M714.77 77V568" stroke="#253a60" opacity=".4"/><text x="714.77" y="591.00" fill="#9aaec7" font-size="10" font-family="Segoe UI,Arial,sans-serif" text-anchor="middle">V230</text><path d="M847.73 77V568" stroke="#253a60" opacity=".4"/><text x="847.73" y="591.00" fill="#9aaec7" font-size="10" font-family="Segoe UI,Arial,sans-serif" text-anchor="middle">V233</text><path d="M1025.00 77V568" stroke="#253a60" opacity=".4"/><text x="1025.00" y="591.00" fill="#9aaec7" font-size="10" font-family="Segoe UI,Arial,sans-serif" text-anchor="middle">V237</text><polyline points="50.00,160.82 94.32,184.74 138.64,210.71 182.95,238.71 227.27,260.99 271.59,280.91 315.91,297.56 360.23,310.33 404.55,321.14 448.86,326.84 493.18,330.37 537.50,332.37 581.82,330.55 626.14,325.42 670.45,316.75 714.77,308.19 759.09,296.14 803.41,284.77 847.73,274.76 892.05,264.49 936.36,266.41 980.68,270.02 1025.00,282.64" fill="none" stroke="#b38af6" stroke-width="1.7" opacity="0.9" stroke-linejoin="round"/><text x="50.00" y="51.00" fill="#b38af6" font-size="10" font-family="Segoe UI,Arial,sans-serif" text-anchor="start">Bollinger inferior 20 / 2σ</text><polyline points="50.00,-28.76 94.32,-37.36 138.64,-43.93 182.95,-52.02 227.27,-54.69 271.59,-52.84 315.91,-47.52 360.23,-39.80 404.55,-28.70 448.86,-13.66 493.18,2.20 537.50,20.44 581.82,43.46 626.14,67.33 670.45,94.15 714.77,117.11 759.09,144.36 803.41,166.28 847.73,184.18 892.05,199.19 936.36,196.25 980.68,190.47 1025.00,169.04" fill="none" stroke="#b38af6" stroke-width="1.7" opacity="0.9" stroke-linejoin="round"/><text x="310.00" y="51.00" fill="#b38af6" font-size="10" font-family="Segoe UI,Arial,sans-serif" text-anchor="start">Bollinger superior</text><polyline points="50.00,66.03 94.32,73.69 138.64,83.39 182.95,93.35 227.27,103.15 271.59,114.04 315.91,125.02 360.23,135.27 404.55,146.22 448.86,156.59 493.18,166.28 537.50,176.41 581.82,187.01 626.14,196.38 670.45,205.45 714.77,212.65 759.09,220.25 803.41,225.53 847.73,229.47 892.05,231.84 936.36,231.33 980.68,230.25 1025.00,225.84" fill="none" stroke="#4fc3f7" stroke-width="1.7" opacity="0.9" stroke-linejoin="round"/><text x="570.00" y="51.00" fill="#4fc3f7" font-size="10" font-family="Segoe UI,Arial,sans-serif" text-anchor="start">Media de Bollinger</text><path d="M50.00 147.28V215.75" stroke="#e74c3c" stroke-width="1" opacity=".75"/><rect x="46.00" y="160.12" width="8.00" height="36.17" fill="#e74c3c" opacity=".85"/><path d="M94.32 175.88V226.36" stroke="#e74c3c" stroke-width="1" opacity=".75"/><rect x="90.32" y="197.41" width="8.00" height="3.68" fill="#e74c3c" opacity=".85"/><path d="M138.64 176.44V245.70" stroke="#e74c3c" stroke-width="1" opacity=".75"/><rect x="134.64" y="194.58" width="8.00" height="30.94" fill="#e74c3c" opacity=".85"/><path d="M182.95 216.87V274.78" stroke="#e74c3c" stroke-width="1" opacity=".75"/><rect x="178.95" y="230.30" width="8.00" height="19.40" fill="#e74c3c" opacity=".85"/><path d="M227.27 224.76V268.28" stroke="#2ecc71" stroke-width="1" opacity=".75"/><rect x="223.27" y="244.54" width="8.00" height="1.82" fill="#2ecc71" opacity=".85"/><path d="M271.59 237.65V263.03" stroke="#e74c3c" stroke-width="1" opacity=".75"/><rect x="267.59" y="248.05" width="8.00" height="3.09" fill="#e74c3c" opacity=".85"/><path d="M315.91 223.39V261.71" stroke="#e74c3c" stroke-width="1" opacity=".75"/><rect x="311.91" y="243.74" width="8.00" height="7.48" fill="#e74c3c" opacity=".85"/><path d="M360.23 232.76V275.82" stroke="#2ecc71" stroke-width="1" opacity=".75"/><rect x="356.23" y="243.35" width="8.00" height="8.02" fill="#2ecc71" opacity=".85"/><path d="M404.55 230.49V264.51" stroke="#e74c3c" stroke-width="1" opacity=".75"/><rect x="400.55" y="242.44" width="8.00" height="7.22" fill="#e74c3c" opacity=".85"/><path d="M448.86 214.63V268.08" stroke="#2ecc71" stroke-width="1" opacity=".75"/><rect x="444.86" y="235.67" width="8.00" height="8.67" fill="#2ecc71" opacity=".85"/><path d="M493.18 219.54V240.93" stroke="#e74c3c" stroke-width="1" opacity=".75"/><rect x="489.18" y="230.04" width="8.00" height="1.80" fill="#e74c3c" opacity=".85"/><path d="M537.50 218.39V259.59" stroke="#e74c3c" stroke-width="1" opacity=".75"/><rect x="533.50" y="235.71" width="8.00" height="4.77" fill="#e74c3c" opacity=".85"/><path d="M581.82 216.85V252.87" stroke="#e74c3c" stroke-width="1" opacity=".75"/><rect x="577.82" y="236.94" width="8.00" height="6.95" fill="#e74c3c" opacity=".85"/><path d="M626.14 212.16V266.74" stroke="#2ecc71" stroke-width="1" opacity=".75"/><rect x="622.14" y="232.60" width="8.00" height="12.60" fill="#2ecc71" opacity=".85"/><path d="M670.45 216.38V246.07" stroke="#2ecc71" stroke-width="1" opacity=".75"/><rect x="666.45" y="232.90" width="8.00" height="3.26" fill="#2ecc71" opacity=".85"/><path d="M714.77 200.45V245.23" stroke="#2ecc71" stroke-width="1" opacity=".75"/><rect x="710.77" y="224.41" width="8.00" height="7.75" fill="#2ecc71" opacity=".85"/><path d="M759.09 206.21V250.71" stroke="#e74c3c" stroke-width="1" opacity=".75"/><rect x="755.09" y="228.00" width="8.00" height="9.14" fill="#e74c3c" opacity=".85"/><path d="M803.41 197.78V266.18" stroke="#2ecc71" stroke-width="1" opacity=".75"/><rect x="799.41" y="222.30" width="8.00" height="19.96" fill="#2ecc71" opacity=".85"/><path d="M847.73 202.63V231.72" stroke="#e74c3c" stroke-width="1" opacity=".75"/><rect x="843.73" y="218.53" width="8.00" height="2.19" fill="#e74c3c" opacity=".85"/><path d="M892.05 185.83V240.54" stroke="#2ecc71" stroke-width="1" opacity=".75"/><rect x="888.05" y="202.36" width="8.00" height="19.09" fill="#2ecc71" opacity=".85"/><path d="M936.36 172.88V225.39" stroke="#2ecc71" stroke-width="1" opacity=".75"/><rect x="932.36" y="186.12" width="8.00" height="17.18" fill="#2ecc71" opacity=".85"/><path d="M980.68 164.67V201.17" stroke="#2ecc71" stroke-width="1" opacity=".75"/><rect x="976.68" y="179.39" width="8.00" height="1.00" fill="#2ecc71" opacity=".85"/><path d="M1025.00 127.18V194.76" stroke="#2ecc71" stroke-width="1" opacity=".75"/><rect x="1021.00" y="137.34" width="8.00" height="47.11" fill="#2ecc71" opacity=".85"/><polyline points="271.59,247.37 847.73,219.21" fill="none" stroke="#2ecc71" stroke-width="1.2" opacity="0.55" stroke-linejoin="round" stroke-dasharray="3 3"/><polyline points="271.59,325.12 847.73,325.12" fill="none" stroke="#e74c3c" stroke-width="1.2" opacity="0.7" stroke-linejoin="round" stroke-dasharray="5 4"/><text x="855.73" y="321.12" fill="#e74c3c" font-size="9" font-family="Segoe UI,Arial,sans-serif" text-anchor="start">STOP INICIAL</text><polyline points="271.59,91.88 847.73,91.88" fill="none" stroke="#f1c40f" stroke-width="1.2" opacity="0.7" stroke-linejoin="round" stroke-dasharray="5 4"/><text x="855.73" y="87.88" fill="#f1c40f" font-size="9" font-family="Segoe UI,Arial,sans-serif" text-anchor="start">TP 2R</text><g><title>Señal #2: cierre de V219, 113.01404</title><path d="M227.27 240.54l4 4-4 4-4-4Z" fill="#f1c40f"/><text x="227.27" y="233.54" fill="#f1c40f" font-size="9" font-family="Segoe UI,Arial,sans-serif" text-anchor="middle">S</text></g><g><title>Entrada #2: apertura de V220, open 112.89619, fill 112.91877</title><path d="M271.59 247.37l-5 8h10Z" fill="#2ecc71"/><text x="271.59" y="267.37" fill="#2ecc71" font-size="9" font-family="Segoe UI,Arial,sans-serif" text-anchor="middle">E</text></g><g><title>Salida #2: V233, Señal (apertura), fill 113.86535</title><path d="M843.73 215.21l8 8m-8 0 8-8" stroke="#4fc3f7" stroke-width="1.7"/></g><path d="M50 370H1025" stroke="#253a60"/><polyline points="50.00,520.40 1025.00,520.40" fill="none" stroke="#253a60" stroke-width="1" opacity="1" stroke-linejoin="round" stroke-dasharray="4 5"/><text x="1038.00" y="524.40" fill="#9aaec7" font-size="9" font-family="Segoe UI,Arial,sans-serif" text-anchor="start">30</text><polyline points="50.00,505.20 1025.00,505.20" fill="none" stroke="#253a60" stroke-width="1" opacity="1" stroke-linejoin="round" stroke-dasharray="4 5"/><text x="1038.00" y="509.20" fill="#9aaec7" font-size="9" font-family="Segoe UI,Arial,sans-serif" text-anchor="start">40</text><polyline points="50.00,459.60 1025.00,459.60" fill="none" stroke="#253a60" stroke-width="1" opacity="1" stroke-linejoin="round" stroke-dasharray="4 5"/><text x="1038.00" y="463.60" fill="#9aaec7" font-size="9" font-family="Segoe UI,Arial,sans-serif" text-anchor="start">70</text><polyline points="50.00,527.22 94.32,528.14 138.64,532.49 182.95,536.15 227.27,533.16 271.59,534.23 315.91,534.24 360.23,529.06 404.55,530.38 448.86,521.20 493.18,518.76 537.50,521.24 581.82,522.21 626.14,514.41 670.45,514.52 714.77,508.59 759.09,513.58 803.41,503.78 847.73,502.78 892.05,491.90 936.36,483.75 980.68,480.64 1025.00,465.26" fill="none" stroke="#b38af6" stroke-width="1.6" opacity="1" stroke-linejoin="round"/><text x="50.00" y="402.00" fill="#b38af6" font-size="10" font-family="Segoe UI,Arial,sans-serif" text-anchor="start">RSI 14</text></svg>
