<svg xmlns="http://www.w3.org/2000/svg" viewBox="0 0 1100 520" role="img"><title>Curva de capital y drawdown del motor real</title><desc>Resultado del motor de backtesting sobre datos sintéticos.</desc><rect width="1100" height="520" fill="#0d1424"/><text x="50.00" y="30.00" fill="#4fc3f7" font-size="12" font-family="Segoe UI,Arial,sans-serif" text-anchor="start">CAPITAL Y DRAWDOWN · MOTOR REAL / DATOS SINTÉTICOS</text><text x="1025.00" y="30.00" fill="#9aaec7" font-size="10" font-family="Segoe UI,Arial,sans-serif" text-anchor="end">INICIAL: 10.000 U.M.</text><rect x="735.36" y="60" width="289.64" height="425" fill="#2ecc71" opacity=".035"/><polyline points="50.00,320.00 1025.00,320.00" fill="none" stroke="#253a60" stroke-width="1" opacity="0.6" stroke-linejoin="round"/><text x="1038.00" y="324.00" fill="#9aaec7" font-size="10" font-family="Segoe UI,Arial,sans-serif" text-anchor="start">9861</text><polyline points="50.00,259.50 1025.00,259.50" fill="none" stroke="#253a60" stroke-width="1" opacity="0.6" stroke-linejoin="round"/><text x="1038.00" y="263.50" fill="#9aaec7" font-size="10" font-family="Segoe UI,Arial,sans-serif" text-anchor="start">9904</text><polyline points="50.00,199.00 1025.00,199.00" fill="none" stroke="#253a60" stroke-width="1" opacity="0.6" stroke-linejoin="round"/><text x="1038.00" y="203.00" fill="#9aaec7" font-size="10" font-family="Segoe UI,Arial,sans-serif" text-anchor="start">9948</text><polyline points="50.00,138.50 1025.00,138.50" fill="none" stroke="#253a60" stroke-width="1" opacity="0.6" stroke-linejoin="round"/><text x="1038.00" y="142.50" fill="#9aaec7" font-size="10" font-family="Segoe UI,Arial,sans-serif" text-anchor="start">9991</text><polyline points="50.00,78.00 1025.00,78.00" fill="none" stroke="#253a60" stroke-width="1" opacity="0.6" stroke-linejoin="round"/><text x="1038.00" y="82.00" fill="#9aaec7" font-size="10" font-family="Segoe UI,Arial,sans-serif" text-anchor="start">10035</text><polyline points="50.00,126.67 54.08,126.67 58.16,126.67 62.24,126.67 66.32,126.67 70.40,126.67 74.48,126.67 78.56,126.67 82.64,126.67 86.72,126.67 90.79,126.67 94.87,126.67 98.95,126.67 103.03,126.67 107.11,126.67 111.19,126.67 115.27,126.67 119.35,126.67 123.43,126.67 127.51,126.67 131.59,126.67 135.67,126.67 139.75,126.67 143.83,126.67 147.91,126.67 151.99,126.67 156.07,126.67 160.15,126.67 164.23,126.67 168.31,126.67 172.38,126.67 176.46,126.67 180.54,126.67 184.62,126.67 188.70,126.67 192.78,126.67 196.86,126.67 200.94,126.67 205.02,126.67 209.10,126.67 213.18,126.67 217.26,126.67 221.34,126.67 225.42,126.67 229.50,126.67 233.58,126.67 237.66,126.67 241.74,126.67 245.82,126.67 249.90,126.67 253.97,126.67 258.05,126.67 262.13,126.67 266.21,126.67 270.29,126.67 274.37,126.67 278.45,126.67 282.53,126.67 286.61,126.67 290.69,126.67 294.77,126.67 298.85,126.67 302.93,126.67 307.01,126.67 311.09,126.67 315.17,126.67 319.25,126.67 323.33,126.67 327.41,126.67 331.49,126.67 335.56,126.67 339.64,126.67 343.72,126.67 347.80,126.67 351.88,126.67 355.96,153.35 360.04,174.75 364.12,178.71 368.20,199.11 372.28,199.11 376.36,199.11 380.44,199.11 384.52,199.11 388.60,199.11 392.68,199.11 396.76,199.11 400.84,199.11 404.92,199.11 409.00,199.11 413.08,199.11 417.15,199.11 421.23,199.11 425.31,199.11 429.39,199.11 433.47,199.11 437.55,199.11 441.63,199.11 445.71,199.11 449.79,199.11 453.87,199.11 457.95,199.11 462.03,199.11 466.11,199.11 470.19,199.11 474.27,199.11 478.35,199.11 482.43,199.11 486.51,199.11 490.59,199.11 494.67,199.11 498.74,199.11 502.82,199.11 506.90,199.11 510.98,199.11 515.06,199.11 519.14,199.11 523.22,199.11 527.30,199.11 531.38,199.11 535.46,199.11 539.54,199.11 543.62,199.11 547.70,199.11 551.78,199.11 555.86,199.11 559.94,199.11 564.02,199.11 568.10,199.11 572.18,199.11 576.26,199.11 580.33,199.11 584.41,199.11 588.49,199.11 592.57,199.11 596.65,199.11 600.73,199.11 604.81,199.11 608.89,199.11 612.97,199.11 617.05,199.11 621.13,199.11 625.21,199.11 629.29,199.11 633.37,199.11 637.45,199.11 641.53,199.11 645.61,199.11 649.69,199.11 653.77,199.11 657.85,199.11 661.92,199.11 666.00,199.11 670.08,199.11 674.16,199.11 678.24,199.11 682.32,199.11 686.40,199.11 690.48,199.11 694.56,199.11 698.64,199.11 702.72,199.11 706.80,199.11 710.88,199.11 714.96,199.11 719.04,199.11 723.12,199.11 727.20,199.11 731.28,199.11 735.36,199.11 739.44,199.11 743.51,199.11 747.59,199.11 751.67,199.11 755.75,199.11 759.83,199.11 763.91,199.11 767.99,199.11 772.07,199.11 776.15,199.11 780.23,199.11 784.31,199.11 788.39,199.11 792.47,199.11 796.55,199.11 800.63,199.11 804.71,199.11 808.79,199.11 812.87,199.11 816.95,199.11 821.03,199.11 825.10,199.11 829.18,199.11 833.26,199.11 837.34,199.11 841.42,199.11 845.50,199.11 849.58,199.11 853.66,199.11 857.74,199.11 861.82,199.11 865.90,199.11 869.98,199.11 874.06,199.11 878.14,199.11 882.22,199.11 886.30,199.11 890.38,199.11 894.46,199.11 898.54,199.11 902.62,199.11 906.69,199.11 910.77,199.11 914.85,199.11 918.93,199.11 923.01,199.11 927.09,199.11 931.17,227.84 935.25,271.33 939.33,271.33 943.41,271.33 947.49,271.33 951.57,271.33 955.65,271.33 959.73,271.33 963.81,271.33 967.89,271.33 971.97,271.33 976.05,271.33 980.13,271.33 984.21,271.33 988.28,271.33 992.36,271.33 996.44,271.33 1000.52,271.33 1004.60,271.33 1008.68,271.33 1012.76,271.33 1016.84,271.33 1020.92,271.33 1025.00,271.33" fill="none" stroke="#4fc3f7" stroke-width="2.1" opacity="1" stroke-linejoin="round"/><polyline points="735.36,60.00 735.36,485.00" fill="none" stroke="#4fc3f7" stroke-width="1" opacity="0.5" stroke-linejoin="round" stroke-dasharray="4 5"/><text x="721.36" y="57.00" fill="#4fc3f7" font-size="10" font-family="Segoe UI,Arial,sans-serif" text-anchor="end">IS</text><text x="749.36" y="57.00" fill="#2ecc71" font-size="10" font-family="Segoe UI,Arial,sans-serif" text-anchor="start">OOS</text><text x="50.00" y="368.00" fill="#e74c3c" font-size="10" font-family="Segoe UI,Arial,sans-serif" text-anchor="start">DRAWDOWN · MARCADO A MERCADO</text><polyline points="50.00,391.00 1025.00,391.00" fill="none" stroke="#253a60" stroke-width="1" opacity="1" stroke-linejoin="round"/><polygon points="50,391 50.00,391.00 54.08,391.00 58.16,391.00 62.24,391.00 66.32,391.00 70.40,391.00 74.48,391.00 78.56,391.00 82.64,391.00 86.72,391.00 90.79,391.00 94.87,391.00 98.95,391.00 103.03,391.00 107.11,391.00 111.19,391.00 115.27,391.00 119.35,391.00 123.43,391.00 127.51,391.00 131.59,391.00 135.67,391.00 139.75,391.00 143.83,391.00 147.91,391.00 151.99,391.00 156.07,391.00 160.15,391.00 164.23,391.00 168.31,391.00 172.38,391.00 176.46,391.00 180.54,391.00 184.62,391.00 188.70,391.00 192.78,391.00 196.86,391.00 200.94,391.00 205.02,391.00 209.10,391.00 213.18,391.00 217.26,391.00 221.34,391.00 225.42,391.00 229.50,391.00 233.58,391.00 237.66,391.00 241.74,391.00 245.82,391.00 249.90,391.00 253.97,391.00 258.05,391.00 262.13,391.00 266.21,391.00 270.29,391.00 274.37,391.00 278.45,391.00 282.53,391.00 286.61,391.00 290.69,391.00 294.77,391.00 298.85,391.00 302.93,391.00 307.01,391.00 311.09,391.00 315.17,391.00 319.25,391.00 323.33,391.00 327.41,391.00 331.49,391.00 335.56,391.00 339.64,391.00 343.72,391.00 347.80,391.00 351.88,391.00 355.96,405.75 360.04,417.59 364.12,419.78 368.20,431.06 372.28,431.06 376.36,431.06 380.44,431.06 384.52,431.06 388.60,431.06 392.68,431.06 396.76,431.06 400.84,431.06 404.92,431.06 409.00,431.06 413.08,431.06 417.15,431.06 421.23,431.06 425.31,431.06 429.39,431.06 433.47,431.06 437.55,431.06 441.63,431.06 445.71,431.06 449.79,431.06 453.87,431.06 457.95,431.06 462.03,431.06 466.11,431.06 470.19,431.06 474.27,431.06 478.35,431.06 482.43,431.06 486.51,431.06 490.59,431.06 494.67,431.06 498.74,431.06 502.82,431.06 506.90,431.06 510.98,431.06 515.06,431.06 519.14,431.06 523.22,431.06 527.30,431.06 531.38,431.06 535.46,431.06 539.54,431.06 543.62,431.06 547.70,431.06 551.78,431.06 555.86,431.06 559.94,431.06 564.02,431.06 568.10,431.06 572.18,431.06 576.26,431.06 580.33,431.06 584.41,431.06 588.49,431.06 592.57,431.06 596.65,431.06 600.73,431.06 604.81,431.06 608.89,431.06 612.97,431.06 617.05,431.06 621.13,431.06 625.21,431.06 629.29,431.06 633.37,431.06 637.45,431.06 641.53,431.06 645.61,431.06 649.69,431.06 653.77,431.06 657.85,431.06 661.92,431.06 666.00,431.06 670.08,431.06 674.16,431.06 678.24,431.06 682.32,431.06 686.40,431.06 690.48,431.06 694.56,431.06 698.64,431.06 702.72,431.06 706.80,431.06 710.88,431.06 714.96,431.06 719.04,431.06 723.12,431.06 727.20,431.06 731.28,431.06 735.36,431.06 739.44,431.06 743.51,431.06 747.59,431.06 751.67,431.06 755.75,431.06 759.83,431.06 763.91,431.06 767.99,431.06 772.07,431.06 776.15,431.06 780.23,431.06 784.31,431.06 788.39,431.06 792.47,431.06 796.55,431.06 800.63,431.06 804.71,431.06 808.79,431.06 812.87,431.06 816.95,431.06 821.03,431.06 825.10,431.06 829.18,431.06 833.26,431.06 837.34,431.06 841.42,431.06 845.50,431.06 849.58,431.06 853.66,431.06 857.74,431.06 861.82,431.06 865.90,431.06 869.98,431.06 874.06,431.06 878.14,431.06 882.22,431.06 886.30,431.06 890.38,431.06 894.46,431.06 898.54,431.06 902.62,431.06 906.69,431.06 910.77,431.06 914.85,431.06 918.93,431.06 923.01,431.06 927.09,431.06 931.17,446.95 935.25,471.00 939.33,471.00 943.41,471.00 947.49,471.00 951.57,471.00 955.65,471.00 959.73,471.00 963.81,471.00 967.89,471.00 971.97,471.00 976.05,471.00 980.13,471.00 984.21,471.00 988.28,471.00 992.36,471.00 996.44,471.00 1000.52,471.00 1004.60,471.00 1008.68,471.00 1012.76,471.00 1016.84,471.00 1020.92,471.00 1025.00,471.00 1025,391" fill="#e74c3c" opacity=".12"/><polyline points="50.00,391.00 54.08,391.00 58.16,391.00 62.24,391.00 66.32,391.00 70.40,391.00 74.48,391.00 78.56,391.00 82.64,391.00 86.72,391.00 90.79,391.00 94.87,391.00 98.95,391.00 103.03,391.00 107.11,391.00 111.19,391.00 115.27,391.00 119.35,391.00 123.43,391.00 127.51,391.00 131.59,391.00 135.67,391.00 139.75,391.00 143.83,391.00 147.91,391.00 151.99,391.00 156.07,391.00 160.15,391.00 164.23,391.00 168.31,391.00 172.38,391.00 176.46,391.00 180.54,391.00 184.62,391.00 188.70,391.00 192.78,391.00 196.86,391.00 200.94,391.00 205.02,391.00 209.10,391.00 213.18,391.00 217.26,391.00 221.34,391.00 225.42,391.00 229.50,391.00 233.58,391.00 237.66,391.00 241.74,391.00 245.82,391.00 249.90,391.00 253.97,391.00 258.05,391.00 262.13,391.00 266.21,391.00 270.29,391.00 274.37,391.00 278.45,391.00 282.53,391.00 286.61,391.00 290.69,391.00 294.77,391.00 298.85,391.00 302.93,391.00 307.01,391.00 311.09,391.00 315.17,391.00 319.25,391.00 323.33,391.00 327.41,391.00 331.49,391.00 335.56,391.00 339.64,391.00 343.72,391.00 347.80,391.00 351.88,391.00 355.96,405.75 360.04,417.59 364.12,419.78 368.20,431.06 372.28,431.06 376.36,431.06 380.44,431.06 384.52,431.06 388.60,431.06 392.68,431.06 396.76,431.06 400.84,431.06 404.92,431.06 409.00,431.06 413.08,431.06 417.15,431.06 421.23,431.06 425.31,431.06 429.39,431.06 433.47,431.06 437.55,431.06 441.63,431.06 445.71,431.06 449.79,431.06 453.87,431.06 457.95,431.06 462.03,431.06 466.11,431.06 470.19,431.06 474.27,431.06 478.35,431.06 482.43,431.06 486.51,431.06 490.59,431.06 494.67,431.06 498.74,431.06 502.82,431.06 506.90,431.06 510.98,431.06 515.06,431.06 519.14,431.06 523.22,431.06 527.30,431.06 531.38,431.06 535.46,431.06 539.54,431.06 543.62,431.06 547.70,431.06 551.78,431.06 555.86,431.06 559.94,431.06 564.02,431.06 568.10,431.06 572.18,431.06 576.26,431.06 580.33,431.06 584.41,431.06 588.49,431.06 592.57,431.06 596.65,431.06 600.73,431.06 604.81,431.06 608.89,431.06 612.97,431.06 617.05,431.06 621.13,431.06 625.21,431.06 629.29,431.06 633.37,431.06 637.45,431.06 641.53,431.06 645.61,431.06 649.69,431.06 653.77,431.06 657.85,431.06 661.92,431.06 666.00,431.06 670.08,431.06 674.16,431.06 678.24,431.06 682.32,431.06 686.40,431.06 690.48,431.06 694.56,431.06 698.64,431.06 702.72,431.06 706.80,431.06 710.88,431.06 714.96,431.06 719.04,431.06 723.12,431.06 727.20,431.06 731.28,431.06 735.36,431.06 739.44,431.06 743.51,431.06 747.59,431.06 751.67,431.06 755.75,431.06 759.83,431.06 763.91,431.06 767.99,431.06 772.07,431.06 776.15,431.06 780.23,431.06 784.31,431.06 788.39,431.06 792.47,431.06 796.55,431.06 800.63,431.06 804.71,431.06 808.79,431.06 812.87,431.06 816.95,431.06 821.03,431.06 825.10,431.06 829.18,431.06 833.26,431.06 837.34,431.06 841.42,431.06 845.50,431.06 849.58,431.06 853.66,431.06 857.74,431.06 861.82,431.06 865.90,431.06 869.98,431.06 874.06,431.06 878.14,431.06 882.22,431.06 886.30,431.06 890.38,431.06 894.46,431.06 898.54,431.06 902.62,431.06 906.69,431.06 910.77,431.06 914.85,431.06 918.93,431.06 923.01,431.06 927.09,431.06 931.17,446.95 935.25,471.00 939.33,471.00 943.41,471.00 947.49,471.00 951.57,471.00 955.65,471.00 959.73,471.00 963.81,471.00 967.89,471.00 971.97,471.00 976.05,471.00 980.13,471.00 984.21,471.00 988.28,471.00 992.36,471.00 996.44,471.00 1000.52,471.00 1004.60,471.00 1008.68,471.00 1012.76,471.00 1016.84,471.00 1020.92,471.00 1025.00,471.00" fill="none" stroke="#e74c3c" stroke-width="1.4" opacity="0.8" stroke-linejoin="round"/><text x="1038.00" y="395.00" fill="#9aaec7" font-size="9" font-family="Segoe UI,Arial,sans-serif" text-anchor="start">0 %</text><text x="1038.00" y="475.00" fill="#9aaec7" font-size="9" font-family="Segoe UI,Arial,sans-serif" text-anchor="start">−1.04 %</text><text x="50.00" y="509.00" fill="#9aaec7" font-size="10" font-family="Segoe UI,Arial,sans-serif" text-anchor="middle">V1</text><text x="213.18" y="509.00" fill="#9aaec7" font-size="10" font-family="Segoe UI,Arial,sans-serif" text-anchor="middle">V41</text><text x="376.36" y="509.00" fill="#9aaec7" font-size="10" font-family="Segoe UI,Arial,sans-serif" text-anchor="middle">V81</text><text x="539.54" y="509.00" fill="#9aaec7" font-size="10" font-family="Segoe UI,Arial,sans-serif" text-anchor="middle">V121</text><text x="698.64" y="509.00" fill="#9aaec7" font-size="10" font-family="Segoe UI,Arial,sans-serif" text-anchor="middle">V160</text><text x="861.82" y="509.00" fill="#9aaec7" font-size="10" font-family="Segoe UI,Arial,sans-serif" text-anchor="middle">V200</text><text x="1025.00" y="509.00" fill="#9aaec7" font-size="10" font-family="Segoe UI,Arial,sans-serif" text-anchor="middle">V240</text></svg>
