<svg xmlns="http://www.w3.org/2000/svg" viewBox="0 0 1100 600" role="img"><title>Señal, entrada y salida calculadas por el motor de backtesting</title><desc>Resultado del motor de backtesting sobre datos sintéticos.</desc><rect width="1100" height="600" fill="#0d1424"/><text x="50.00" y="23.00" fill="#9aaec7" font-size="11" font-family="Segoe UI,Arial,sans-serif" text-anchor="start">H1 · UTC · DETALLE DE OPERACIÓN</text><text x="480.00" y="23.00" fill="#f1c40f" font-size="10" font-family="Segoe UI,Arial,sans-serif" text-anchor="start">S = SEÑAL AL CIERRE</text><text x="680.00" y="23.00" fill="#2ecc71" font-size="10" font-family="Segoe UI,Arial,sans-serif" text-anchor="start">E = ENTRADA AL OPEN</text><text x="885.00" y="23.00" fill="#4fc3f7" font-size="10" font-family="Segoe UI,Arial,sans-serif" text-anchor="start">X = SALIDA</text><path d="M50 340.00H1025" stroke="#253a60" opacity=".6"/><text x="1038.00" y="344.00" fill="#9aaec7" font-size="10" font-family="Segoe UI,Arial,sans-serif" text-anchor="start">103.29</text><path d="M50 287.40H1025" stroke="#253a60" opacity=".6"/><text x="1038.00" y="291.40" fill="#9aaec7" font-size="10" font-family="Segoe UI,Arial,sans-serif" text-anchor="start">106.28</text><path d="M50 234.80H1025" stroke="#253a60" opacity=".6"/><text x="1038.00" y="238.80" fill="#9aaec7" font-size="10" font-family="Segoe UI,Arial,sans-serif" text-anchor="start">109.26</text><path d="M50 182.20H1025" stroke="#253a60" opacity=".6"/><text x="1038.00" y="186.20" fill="#9aaec7" font-size="10" font-family="Segoe UI,Arial,sans-serif" text-anchor="start">112.24</text><path d="M50 129.60H1025" stroke="#253a60" opacity=".6"/><text x="1038.00" y="133.60" fill="#9aaec7" font-size="10" font-family="Segoe UI,Arial,sans-serif" text-anchor="start">115.22</text><path d="M50 77.00H1025" stroke="#253a60" opacity=".6"/><text x="1038.00" y="81.00" fill="#9aaec7" font-size="10" font-family="Segoe UI,Arial,sans-serif" text-anchor="start">118.20</text><path d="M50.00 77V568" stroke="#253a60" opacity=".4"/><text x="50.00" y="591.00" fill="#9aaec7" font-size="10" font-family="Segoe UI,Arial,sans-serif" text-anchor="middle">V134</text><path d="M222.06 77V568" stroke="#253a60" opacity=".4"/><text x="222.06" y="591.00" fill="#9aaec7" font-size="10" font-family="Segoe UI,Arial,sans-serif" text-anchor="middle">V137</text><path d="M279.41 77V568" stroke="#253a60" opacity=".4"/><text x="279.41" y="591.00" fill="#9aaec7" font-size="10" font-family="Segoe UI,Arial,sans-serif" text-anchor="middle">V138</text><path d="M336.76 77V568" stroke="#253a60" opacity=".4"/><text x="336.76" y="591.00" fill="#9aaec7" font-size="10" font-family="Segoe UI,Arial,sans-serif" text-anchor="middle">V139</text><path d="M394.12 77V568" stroke="#253a60" opacity=".4"/><text x="394.12" y="591.00" fill="#9aaec7" font-size="10" font-family="Segoe UI,Arial,sans-serif" text-anchor="middle">V140</text><path d="M508.82 77V568" stroke="#253a60" opacity=".4"/><text x="508.82" y="591.00" fill="#9aaec7" font-size="10" font-family="Segoe UI,Arial,sans-serif" text-anchor="middle">V142</text><path d="M680.88 77V568" stroke="#253a60" opacity=".4"/><text x="680.88" y="591.00" fill="#9aaec7" font-size="10" font-family="Segoe UI,Arial,sans-serif" text-anchor="middle">V145</text><path d="M795.59 77V568" stroke="#253a60" opacity=".4"/><text x="795.59" y="591.00" fill="#9aaec7" font-size="10" font-family="Segoe UI,Arial,sans-serif" text-anchor="middle">V147</text><path d="M852.94 77V568" stroke="#253a60" opacity=".4"/><text x="852.94" y="591.00" fill="#9aaec7" font-size="10" font-family="Segoe UI,Arial,sans-serif" text-anchor="middle">V148</text><path d="M1025.00 77V568" stroke="#253a60" opacity=".4"/><text x="1025.00" y="591.00" fill="#9aaec7" font-size="10" font-family="Segoe UI,Arial,sans-serif" text-anchor="middle">V151</text><polyline points="50.00,288.73 107.35,287.97 164.71,286.62 222.06,283.70 279.41,278.96 336.76,273.38 394.12,266.76 451.47,259.40 508.82,252.12 566.18,245.21 623.53,237.64 680.88,230.66 738.24,223.64 795.59,215.83 852.94,207.98 910.29,200.97 967.65,193.69 1025.00,185.84" fill="none" stroke="#4fc3f7" stroke-width="1.7" opacity="0.9" stroke-linejoin="round"/><text x="50.00" y="51.00" fill="#4fc3f7" font-size="10" font-family="Segoe UI,Arial,sans-serif" text-anchor="start">EMA 20</text><polyline points="50.00,285.03 107.35,284.86 164.71,284.43 222.06,283.31 279.41,281.38 336.76,278.99 394.12,276.04 451.47,272.64 508.82,269.13 566.18,265.62 623.53,261.70 680.88,257.88 738.24,253.93 795.59,249.52 852.94,244.97 910.29,240.63 967.65,236.08 1025.00,231.18" fill="none" stroke="#f1c40f" stroke-width="1.7" opacity="0.9" stroke-linejoin="round"/><text x="310.00" y="51.00" fill="#f1c40f" font-size="10" font-family="Segoe UI,Arial,sans-serif" text-anchor="start">EMA 50</text><path d="M50.00 293.11V313.54" stroke="#2ecc71" stroke-width="1" opacity=".75"/><rect x="46.00" y="299.38" width="8.00" height="4.04" fill="#2ecc71" opacity=".85"/><path d="M107.35 269.69V308.45" stroke="#2ecc71" stroke-width="1" opacity=".75"/><rect x="103.35" y="280.70" width="8.00" height="15.64" fill="#2ecc71" opacity=".85"/><path d="M164.71 268.22V292.25" stroke="#2ecc71" stroke-width="1" opacity=".75"/><rect x="160.71" y="273.79" width="8.00" height="7.95" fill="#2ecc71" opacity=".85"/><path d="M222.06 250.25V288.26" stroke="#2ecc71" stroke-width="1" opacity=".75"/><rect x="218.06" y="255.96" width="8.00" height="17.65" fill="#2ecc71" opacity=".85"/><path d="M279.41 220.42V269.61" stroke="#2ecc71" stroke-width="1" opacity=".75"/><rect x="275.41" y="233.93" width="8.00" height="24.77" fill="#2ecc71" opacity=".85"/><path d="M336.76 205.94V239.94" stroke="#2ecc71" stroke-width="1" opacity=".75"/><rect x="332.76" y="220.46" width="8.00" height="13.00" fill="#2ecc71" opacity=".85"/><path d="M394.12 191.70V233.22" stroke="#2ecc71" stroke-width="1" opacity=".75"/><rect x="390.12" y="203.80" width="8.00" height="14.48" fill="#2ecc71" opacity=".85"/><path d="M451.47 181.80V220.14" stroke="#2ecc71" stroke-width="1" opacity=".75"/><rect x="447.47" y="189.47" width="8.00" height="18.71" fill="#2ecc71" opacity=".85"/><path d="M508.82 172.41V201.16" stroke="#2ecc71" stroke-width="1" opacity=".75"/><rect x="504.82" y="182.94" width="8.00" height="5.91" fill="#2ecc71" opacity=".85"/><path d="M566.18 171.67V195.67" stroke="#2ecc71" stroke-width="1" opacity=".75"/><rect x="562.18" y="179.66" width="8.00" height="5.94" fill="#2ecc71" opacity=".85"/><path d="M623.53 157.02V191.64" stroke="#2ecc71" stroke-width="1" opacity=".75"/><rect x="619.53" y="165.65" width="8.00" height="14.64" fill="#2ecc71" opacity=".85"/><path d="M680.88 149.60V180.30" stroke="#2ecc71" stroke-width="1" opacity=".75"/><rect x="676.88" y="164.41" width="8.00" height="3.78" fill="#2ecc71" opacity=".85"/><path d="M738.24 148.78V175.13" stroke="#2ecc71" stroke-width="1" opacity=".75"/><rect x="734.24" y="156.97" width="8.00" height="8.27" fill="#2ecc71" opacity=".85"/><path d="M795.59 136.08V166.01" stroke="#2ecc71" stroke-width="1" opacity=".75"/><rect x="791.59" y="141.58" width="8.00" height="12.83" fill="#2ecc71" opacity=".85"/><path d="M852.94 124.92V149.35" stroke="#2ecc71" stroke-width="1" opacity=".75"/><rect x="848.94" y="133.38" width="8.00" height="8.98" fill="#2ecc71" opacity=".85"/><path d="M910.29 121.15V142.05" stroke="#e74c3c" stroke-width="1" opacity=".75"/><rect x="906.29" y="129.65" width="8.00" height="4.71" fill="#e74c3c" opacity=".85"/><path d="M967.65 119.17V136.13" stroke="#2ecc71" stroke-width="1" opacity=".75"/><rect x="963.65" y="124.56" width="8.00" height="6.28" fill="#2ecc71" opacity=".85"/><path d="M1025.00 103.46V137.97" stroke="#2ecc71" stroke-width="1" opacity=".75"/><rect x="1021.00" y="111.27" width="8.00" height="17.38" fill="#2ecc71" opacity=".85"/><polyline points="336.76,233.07 795.59,144.13" fill="none" stroke="#2ecc71" stroke-width="1.2" opacity="0.55" stroke-linejoin="round" stroke-dasharray="3 3"/><polyline points="336.76,277.54 795.59,277.54" fill="none" stroke="#e74c3c" stroke-width="1.2" opacity="0.7" stroke-linejoin="round" stroke-dasharray="5 4"/><text x="803.59" y="273.54" fill="#e74c3c" font-size="9" font-family="Segoe UI,Arial,sans-serif" text-anchor="start">STOP INICIAL</text><polyline points="336.76,144.13 795.59,144.13" fill="none" stroke="#f1c40f" stroke-width="1.2" opacity="0.7" stroke-linejoin="round" stroke-dasharray="5 4"/><text x="803.59" y="140.13" fill="#f1c40f" font-size="9" font-family="Segoe UI,Arial,sans-serif" text-anchor="start">TP 2R</text><g><title>Señal #2: cierre de V138, 109.30632</title><path d="M279.41 229.93l4 4-4 4-4-4Z" fill="#f1c40f"/><text x="279.41" y="222.93" fill="#f1c40f" font-size="9" font-family="Segoe UI,Arial,sans-serif" text-anchor="middle">S</text></g><g><title>Entrada #2: apertura de V139, open 109.33350, fill 109.35537</title><path d="M336.76 233.07l-5 8h10Z" fill="#2ecc71"/><text x="336.76" y="253.07" fill="#2ecc71" font-size="9" font-family="Segoe UI,Arial,sans-serif" text-anchor="middle">E</text></g><g><title>Salida #2: V147, Take Profit (intrabar), fill 114.39738</title><path d="M791.59 140.13l8 8m-8 0 8-8" stroke="#4fc3f7" stroke-width="1.7"/></g><path d="M50 370H1025" stroke="#253a60"/><polyline points="50.00,520.40 1025.00,520.40" fill="none" stroke="#253a60" stroke-width="1" opacity="1" stroke-linejoin="round" stroke-dasharray="4 5"/><text x="1038.00" y="524.40" fill="#9aaec7" font-size="9" font-family="Segoe UI,Arial,sans-serif" text-anchor="start">30</text><polyline points="50.00,490.00 1025.00,490.00" fill="none" stroke="#253a60" stroke-width="1" opacity="1" stroke-linejoin="round" stroke-dasharray="4 5"/><text x="1038.00" y="494.00" fill="#9aaec7" font-size="9" font-family="Segoe UI,Arial,sans-serif" text-anchor="start">50</text><polyline points="50.00,459.60 1025.00,459.60" fill="none" stroke="#253a60" stroke-width="1" opacity="1" stroke-linejoin="round" stroke-dasharray="4 5"/><text x="1038.00" y="463.60" fill="#9aaec7" font-size="9" font-family="Segoe UI,Arial,sans-serif" text-anchor="start">70</text><polyline points="50.00,503.16 107.35,486.54 164.71,481.53 222.06,470.65 279.41,460.65 336.76,455.79 394.12,450.70 451.47,446.98 508.82,445.42 566.18,444.63 623.53,441.47 680.88,441.20 738.24,439.59 795.59,436.61 852.94,435.20 910.29,436.25 967.65,434.48 1025.00,432.36" fill="none" stroke="#b38af6" stroke-width="1.6" opacity="1" stroke-linejoin="round"/><text x="50.00" y="402.00" fill="#b38af6" font-size="10" font-family="Segoe UI,Arial,sans-serif" text-anchor="start">RSI 14</text></svg>
