<svg xmlns="http://www.w3.org/2000/svg" viewBox="0 0 1100 520" role="img"><title>Curva de capital y drawdown del motor real</title><desc>Resultado del motor de backtesting sobre datos sintéticos.</desc><rect width="1100" height="520" fill="#0d1424"/><text x="50.00" y="30.00" fill="#4fc3f7" font-size="12" font-family="Segoe UI,Arial,sans-serif" text-anchor="start">CAPITAL Y DRAWDOWN · MOTOR REAL / DATOS SINTÉTICOS</text><text x="1025.00" y="30.00" fill="#9aaec7" font-size="10" font-family="Segoe UI,Arial,sans-serif" text-anchor="end">INICIAL: 10.000 U.M.</text><rect x="735.36" y="60" width="289.64" height="425" fill="#2ecc71" opacity=".035"/><polyline points="50.00,320.00 1025.00,320.00" fill="none" stroke="#253a60" stroke-width="1" opacity="0.6" stroke-linejoin="round"/><text x="1038.00" y="324.00" fill="#9aaec7" font-size="10" font-family="Segoe UI,Arial,sans-serif" text-anchor="start">9756</text><polyline points="50.00,259.50 1025.00,259.50" fill="none" stroke="#253a60" stroke-width="1" opacity="0.6" stroke-linejoin="round"/><text x="1038.00" y="263.50" fill="#9aaec7" font-size="10" font-family="Segoe UI,Arial,sans-serif" text-anchor="start">9894</text><polyline points="50.00,199.00 1025.00,199.00" fill="none" stroke="#253a60" stroke-width="1" opacity="0.6" stroke-linejoin="round"/><text x="1038.00" y="203.00" fill="#9aaec7" font-size="10" font-family="Segoe UI,Arial,sans-serif" text-anchor="start">10033</text><polyline points="50.00,138.50 1025.00,138.50" fill="none" stroke="#253a60" stroke-width="1" opacity="0.6" stroke-linejoin="round"/><text x="1038.00" y="142.50" fill="#9aaec7" font-size="10" font-family="Segoe UI,Arial,sans-serif" text-anchor="start">10171</text><polyline points="50.00,78.00 1025.00,78.00" fill="none" stroke="#253a60" stroke-width="1" opacity="0.6" stroke-linejoin="round"/><text x="1038.00" y="82.00" fill="#9aaec7" font-size="10" font-family="Segoe UI,Arial,sans-serif" text-anchor="start">10309</text><polyline points="50.00,213.25 54.08,213.25 58.16,213.25 62.24,213.25 66.32,213.25 70.40,213.25 74.48,213.25 78.56,213.25 82.64,213.25 86.72,213.25 90.79,213.25 94.87,213.25 98.95,213.25 103.03,213.25 107.11,213.25 111.19,213.25 115.27,213.25 119.35,213.25 123.43,213.25 127.51,213.25 131.59,213.25 135.67,213.25 139.75,213.25 143.83,213.25 147.91,213.25 151.99,213.25 156.07,213.25 160.15,213.25 164.23,213.25 168.31,213.25 172.38,213.25 176.46,213.25 180.54,213.25 184.62,213.25 188.70,213.25 192.78,213.25 196.86,213.25 200.94,213.25 205.02,213.25 209.10,213.25 213.18,213.25 217.26,213.25 221.34,213.25 225.42,213.25 229.50,213.25 233.58,213.25 237.66,213.25 241.74,213.25 245.82,213.25 249.90,213.25 253.97,213.25 258.05,213.25 262.13,213.25 266.21,213.25 270.29,213.25 274.37,213.25 278.45,213.25 282.53,213.25 286.61,213.25 290.69,213.25 294.77,213.25 298.85,213.25 302.93,213.25 307.01,213.25 311.09,213.25 315.17,213.25 319.25,213.25 323.33,213.25 327.41,213.25 331.49,213.25 335.56,213.25 339.64,213.25 343.72,213.25 347.80,213.25 351.88,213.25 355.96,213.25 360.04,213.25 364.12,213.25 368.20,213.25 372.28,213.25 376.36,213.25 380.44,213.25 384.52,213.25 388.60,213.25 392.68,213.25 396.76,213.25 400.84,213.25 404.92,213.25 409.00,213.25 413.08,213.25 417.15,213.25 421.23,213.25 425.31,213.25 429.39,213.25 433.47,213.25 437.55,213.25 441.63,213.25 445.71,213.25 449.79,213.25 453.87,213.25 457.95,213.25 462.03,195.48 466.11,173.89 470.19,138.14 474.27,113.67 478.35,97.77 482.43,108.91 486.51,93.32 490.59,109.43 494.67,124.92 498.74,122.50 502.82,139.28 506.90,169.35 510.98,186.92 515.06,213.68 519.14,215.11 523.22,217.05 527.30,242.43 531.38,227.12 535.46,249.35 539.54,242.34 543.62,230.90 547.70,259.03 551.78,253.37 555.86,278.45 559.94,304.68 564.02,304.68 568.10,304.68 572.18,304.68 576.26,304.68 580.33,304.68 584.41,304.68 588.49,304.68 592.57,304.68 596.65,304.68 600.73,304.68 604.81,304.68 608.89,304.68 612.97,304.68 617.05,304.68 621.13,304.68 625.21,304.68 629.29,304.68 633.37,304.68 637.45,304.68 641.53,304.68 645.61,304.68 649.69,304.68 653.77,304.68 657.85,304.68 661.92,304.68 666.00,304.68 670.08,304.68 674.16,304.68 678.24,304.68 682.32,304.68 686.40,304.68 690.48,304.68 694.56,304.68 698.64,304.68 702.72,304.68 706.80,304.68 710.88,304.68 714.96,304.68 719.04,304.68 723.12,304.68 727.20,304.68 731.28,304.68 735.36,304.68 739.44,304.68 743.51,304.68 747.59,304.68 751.67,304.68 755.75,304.68 759.83,304.68 763.91,304.68 767.99,304.68 772.07,304.68 776.15,304.68 780.23,304.68 784.31,304.68 788.39,304.68 792.47,304.68 796.55,304.68 800.63,304.68 804.71,304.68 808.79,304.68 812.87,304.68 816.95,304.68 821.03,304.68 825.10,304.68 829.18,304.68 833.26,304.68 837.34,304.68 841.42,304.68 845.50,304.68 849.58,304.68 853.66,304.68 857.74,304.68 861.82,304.68 865.90,304.68 869.98,304.68 874.06,304.68 878.14,304.68 882.22,304.68 886.30,304.68 890.38,304.68 894.46,304.68 898.54,304.68 902.62,304.68 906.69,304.68 910.77,304.68 914.85,304.68 918.93,304.68 923.01,304.68 927.09,304.68 931.17,304.68 935.25,304.68 939.33,304.68 943.41,304.68 947.49,304.68 951.57,304.68 955.65,304.68 959.73,304.68 963.81,304.68 967.89,304.68 971.97,304.68 976.05,304.68 980.13,304.68 984.21,304.68 988.28,304.68 992.36,304.68 996.44,304.68 1000.52,304.68 1004.60,304.68 1008.68,304.68 1012.76,304.68 1016.84,304.68 1020.92,304.68 1025.00,304.68" fill="none" stroke="#4fc3f7" stroke-width="2.1" opacity="1" stroke-linejoin="round"/><polyline points="735.36,60.00 735.36,485.00" fill="none" stroke="#4fc3f7" stroke-width="1" opacity="0.5" stroke-linejoin="round" stroke-dasharray="4 5"/><text x="721.36" y="57.00" fill="#4fc3f7" font-size="10" font-family="Segoe UI,Arial,sans-serif" text-anchor="end">IS</text><text x="749.36" y="57.00" fill="#2ecc71" font-size="10" font-family="Segoe UI,Arial,sans-serif" text-anchor="start">OOS</text><text x="50.00" y="368.00" fill="#e74c3c" font-size="10" font-family="Segoe UI,Arial,sans-serif" text-anchor="start">DRAWDOWN · MARCADO A MERCADO</text><polyline points="50.00,391.00 1025.00,391.00" fill="none" stroke="#253a60" stroke-width="1" opacity="1" stroke-linejoin="round"/><polygon points="50,391 50.00,391.00 54.08,391.00 58.16,391.00 62.24,391.00 66.32,391.00 70.40,391.00 74.48,391.00 78.56,391.00 82.64,391.00 86.72,391.00 90.79,391.00 94.87,391.00 98.95,391.00 103.03,391.00 107.11,391.00 111.19,391.00 115.27,391.00 119.35,391.00 123.43,391.00 127.51,391.00 131.59,391.00 135.67,391.00 139.75,391.00 143.83,391.00 147.91,391.00 151.99,391.00 156.07,391.00 160.15,391.00 164.23,391.00 168.31,391.00 172.38,391.00 176.46,391.00 180.54,391.00 184.62,391.00 188.70,391.00 192.78,391.00 196.86,391.00 200.94,391.00 205.02,391.00 209.10,391.00 213.18,391.00 217.26,391.00 221.34,391.00 225.42,391.00 229.50,391.00 233.58,391.00 237.66,391.00 241.74,391.00 245.82,391.00 249.90,391.00 253.97,391.00 258.05,391.00 262.13,391.00 266.21,391.00 270.29,391.00 274.37,391.00 278.45,391.00 282.53,391.00 286.61,391.00 290.69,391.00 294.77,391.00 298.85,391.00 302.93,391.00 307.01,391.00 311.09,391.00 315.17,391.00 319.25,391.00 323.33,391.00 327.41,391.00 331.49,391.00 335.56,391.00 339.64,391.00 343.72,391.00 347.80,391.00 351.88,391.00 355.96,391.00 360.04,391.00 364.12,391.00 368.20,391.00 372.28,391.00 376.36,391.00 380.44,391.00 384.52,391.00 388.60,391.00 392.68,391.00 396.76,391.00 400.84,391.00 404.92,391.00 409.00,391.00 413.08,391.00 417.15,391.00 421.23,391.00 425.31,391.00 429.39,391.00 433.47,391.00 437.55,391.00 441.63,391.00 445.71,391.00 449.79,391.00 453.87,391.00 457.95,391.00 462.03,391.00 466.11,391.00 470.19,391.00 474.27,391.00 478.35,391.00 482.43,395.22 486.51,391.00 490.59,397.10 494.67,402.96 498.74,402.05 502.82,408.40 506.90,419.78 510.98,426.43 515.06,436.55 519.14,437.10 523.22,437.83 527.30,447.44 531.38,441.64 535.46,450.06 539.54,447.40 543.62,443.07 547.70,453.72 551.78,451.58 555.86,461.07 559.94,471.00 564.02,471.00 568.10,471.00 572.18,471.00 576.26,471.00 580.33,471.00 584.41,471.00 588.49,471.00 592.57,471.00 596.65,471.00 600.73,471.00 604.81,471.00 608.89,471.00 612.97,471.00 617.05,471.00 621.13,471.00 625.21,471.00 629.29,471.00 633.37,471.00 637.45,471.00 641.53,471.00 645.61,471.00 649.69,471.00 653.77,471.00 657.85,471.00 661.92,471.00 666.00,471.00 670.08,471.00 674.16,471.00 678.24,471.00 682.32,471.00 686.40,471.00 690.48,471.00 694.56,471.00 698.64,471.00 702.72,471.00 706.80,471.00 710.88,471.00 714.96,471.00 719.04,471.00 723.12,471.00 727.20,471.00 731.28,471.00 735.36,471.00 739.44,471.00 743.51,471.00 747.59,471.00 751.67,471.00 755.75,471.00 759.83,471.00 763.91,471.00 767.99,471.00 772.07,471.00 776.15,471.00 780.23,471.00 784.31,471.00 788.39,471.00 792.47,471.00 796.55,471.00 800.63,471.00 804.71,471.00 808.79,471.00 812.87,471.00 816.95,471.00 821.03,471.00 825.10,471.00 829.18,471.00 833.26,471.00 837.34,471.00 841.42,471.00 845.50,471.00 849.58,471.00 853.66,471.00 857.74,471.00 861.82,471.00 865.90,471.00 869.98,471.00 874.06,471.00 878.14,471.00 882.22,471.00 886.30,471.00 890.38,471.00 894.46,471.00 898.54,471.00 902.62,471.00 906.69,471.00 910.77,471.00 914.85,471.00 918.93,471.00 923.01,471.00 927.09,471.00 931.17,471.00 935.25,471.00 939.33,471.00 943.41,471.00 947.49,471.00 951.57,471.00 955.65,471.00 959.73,471.00 963.81,471.00 967.89,471.00 971.97,471.00 976.05,471.00 980.13,471.00 984.21,471.00 988.28,471.00 992.36,471.00 996.44,471.00 1000.52,471.00 1004.60,471.00 1008.68,471.00 1012.76,471.00 1016.84,471.00 1020.92,471.00 1025.00,471.00 1025,391" fill="#e74c3c" opacity=".12"/><polyline points="50.00,391.00 54.08,391.00 58.16,391.00 62.24,391.00 66.32,391.00 70.40,391.00 74.48,391.00 78.56,391.00 82.64,391.00 86.72,391.00 90.79,391.00 94.87,391.00 98.95,391.00 103.03,391.00 107.11,391.00 111.19,391.00 115.27,391.00 119.35,391.00 123.43,391.00 127.51,391.00 131.59,391.00 135.67,391.00 139.75,391.00 143.83,391.00 147.91,391.00 151.99,391.00 156.07,391.00 160.15,391.00 164.23,391.00 168.31,391.00 172.38,391.00 176.46,391.00 180.54,391.00 184.62,391.00 188.70,391.00 192.78,391.00 196.86,391.00 200.94,391.00 205.02,391.00 209.10,391.00 213.18,391.00 217.26,391.00 221.34,391.00 225.42,391.00 229.50,391.00 233.58,391.00 237.66,391.00 241.74,391.00 245.82,391.00 249.90,391.00 253.97,391.00 258.05,391.00 262.13,391.00 266.21,391.00 270.29,391.00 274.37,391.00 278.45,391.00 282.53,391.00 286.61,391.00 290.69,391.00 294.77,391.00 298.85,391.00 302.93,391.00 307.01,391.00 311.09,391.00 315.17,391.00 319.25,391.00 323.33,391.00 327.41,391.00 331.49,391.00 335.56,391.00 339.64,391.00 343.72,391.00 347.80,391.00 351.88,391.00 355.96,391.00 360.04,391.00 364.12,391.00 368.20,391.00 372.28,391.00 376.36,391.00 380.44,391.00 384.52,391.00 388.60,391.00 392.68,391.00 396.76,391.00 400.84,391.00 404.92,391.00 409.00,391.00 413.08,391.00 417.15,391.00 421.23,391.00 425.31,391.00 429.39,391.00 433.47,391.00 437.55,391.00 441.63,391.00 445.71,391.00 449.79,391.00 453.87,391.00 457.95,391.00 462.03,391.00 466.11,391.00 470.19,391.00 474.27,391.00 478.35,391.00 482.43,395.22 486.51,391.00 490.59,397.10 494.67,402.96 498.74,402.05 502.82,408.40 506.90,419.78 510.98,426.43 515.06,436.55 519.14,437.10 523.22,437.83 527.30,447.44 531.38,441.64 535.46,450.06 539.54,447.40 543.62,443.07 547.70,453.72 551.78,451.58 555.86,461.07 559.94,471.00 564.02,471.00 568.10,471.00 572.18,471.00 576.26,471.00 580.33,471.00 584.41,471.00 588.49,471.00 592.57,471.00 596.65,471.00 600.73,471.00 604.81,471.00 608.89,471.00 612.97,471.00 617.05,471.00 621.13,471.00 625.21,471.00 629.29,471.00 633.37,471.00 637.45,471.00 641.53,471.00 645.61,471.00 649.69,471.00 653.77,471.00 657.85,471.00 661.92,471.00 666.00,471.00 670.08,471.00 674.16,471.00 678.24,471.00 682.32,471.00 686.40,471.00 690.48,471.00 694.56,471.00 698.64,471.00 702.72,471.00 706.80,471.00 710.88,471.00 714.96,471.00 719.04,471.00 723.12,471.00 727.20,471.00 731.28,471.00 735.36,471.00 739.44,471.00 743.51,471.00 747.59,471.00 751.67,471.00 755.75,471.00 759.83,471.00 763.91,471.00 767.99,471.00 772.07,471.00 776.15,471.00 780.23,471.00 784.31,471.00 788.39,471.00 792.47,471.00 796.55,471.00 800.63,471.00 804.71,471.00 808.79,471.00 812.87,471.00 816.95,471.00 821.03,471.00 825.10,471.00 829.18,471.00 833.26,471.00 837.34,471.00 841.42,471.00 845.50,471.00 849.58,471.00 853.66,471.00 857.74,471.00 861.82,471.00 865.90,471.00 869.98,471.00 874.06,471.00 878.14,471.00 882.22,471.00 886.30,471.00 890.38,471.00 894.46,471.00 898.54,471.00 902.62,471.00 906.69,471.00 910.77,471.00 914.85,471.00 918.93,471.00 923.01,471.00 927.09,471.00 931.17,471.00 935.25,471.00 939.33,471.00 943.41,471.00 947.49,471.00 951.57,471.00 955.65,471.00 959.73,471.00 963.81,471.00 967.89,471.00 971.97,471.00 976.05,471.00 980.13,471.00 984.21,471.00 988.28,471.00 992.36,471.00 996.44,471.00 1000.52,471.00 1004.60,471.00 1008.68,471.00 1012.76,471.00 1016.84,471.00 1020.92,471.00 1025.00,471.00" fill="none" stroke="#e74c3c" stroke-width="1.4" opacity="0.8" stroke-linejoin="round"/><text x="1038.00" y="395.00" fill="#9aaec7" font-size="9" font-family="Segoe UI,Arial,sans-serif" text-anchor="start">0 %</text><text x="1038.00" y="475.00" fill="#9aaec7" font-size="9" font-family="Segoe UI,Arial,sans-serif" text-anchor="start">−4.70 %</text><text x="50.00" y="509.00" fill="#9aaec7" font-size="10" font-family="Segoe UI,Arial,sans-serif" text-anchor="middle">V1</text><text x="213.18" y="509.00" fill="#9aaec7" font-size="10" font-family="Segoe UI,Arial,sans-serif" text-anchor="middle">V41</text><text x="376.36" y="509.00" fill="#9aaec7" font-size="10" font-family="Segoe UI,Arial,sans-serif" text-anchor="middle">V81</text><text x="539.54" y="509.00" fill="#9aaec7" font-size="10" font-family="Segoe UI,Arial,sans-serif" text-anchor="middle">V121</text><text x="698.64" y="509.00" fill="#9aaec7" font-size="10" font-family="Segoe UI,Arial,sans-serif" text-anchor="middle">V160</text><text x="861.82" y="509.00" fill="#9aaec7" font-size="10" font-family="Segoe UI,Arial,sans-serif" text-anchor="middle">V200</text><text x="1025.00" y="509.00" fill="#9aaec7" font-size="10" font-family="Segoe UI,Arial,sans-serif" text-anchor="middle">V240</text></svg>
